<?xml version="1.0" encoding="UTF-8"?>
<svg width="100px" height="100px" viewBox="0 0 100 100" version="1.1" xmlns="http://www.w3.org/2000/svg" xmlns:xlink="http://www.w3.org/1999/xlink">
    <!-- Generator: Sketch 43.1 (39012) - http://www.bohemiancoding.com/sketch -->
    <title>Group 5</title>
    <desc>Created with Sketch.</desc>
    <defs></defs>
    <g id="Page-1" stroke="none" stroke-width="1" fill="none" fill-rule="evenodd">
        <g id="Desktop-HD-Copy" transform="translate(-509.000000, -252.000000)">
            <g id="Group-5" transform="translate(509.000000, 252.000000)">
                <circle id="Oval-2" fill="#FFFFFF" cx="50" cy="50" r="50"></circle>
                <g id="IG-red" transform="translate(15.000000, 15.000000)" fill-rule="nonzero" fill="#D7263D">
                    <path d="M59.7460937,0 L10.2539063,0 C4.60037239,0 0,4.60037239 0,10.2539063 L0,59.7460937 C0,65.3996277 4.60037239,70 10.2539063,70 L59.7460937,70 C65.3996277,70 70,65.3996277 70,59.7460937 L70,10.2539063 C70,4.60037239 65.3996277,0 59.7460937,0 Z M35.1367187,53.3203126 C24.9591828,53.3203126 16.6796875,45.0408174 16.6796875,34.8632813 C16.6796875,24.6857453 24.9591828,16.40625 35.1367187,16.40625 C45.3142547,16.40625 53.59375,24.6857453 53.59375,34.8632813 C53.59375,45.0408174 45.3142547,53.3203126 35.1367187,53.3203126 Z M55.6445313,20.5078125 C52.2521972,20.5078125 49.4921874,17.7478027 49.4921874,14.3554687 C49.4921874,10.9631348 52.2521972,8.203125 55.6445313,8.203125 C59.0368652,8.203125 61.796875,10.9631348 61.796875,14.3554687 C61.796875,17.7478027 59.0368652,20.5078125 55.6445313,20.5078125 Z" id="Shape"></path>
                    <path d="M55.6445313,12.3046875 C54.5128632,12.3046875 53.59375,13.2238006 53.59375,14.3554687 C53.59375,15.4871369 54.5128632,16.40625 55.6445313,16.40625 C56.7761995,16.40625 57.6953126,15.4871369 57.6953126,14.3554687 C57.6953126,13.2238006 56.7761995,12.3046875 55.6445313,12.3046875 Z" id="Shape"></path>
                    <path d="M35.1367187,20.5078125 C27.2219849,20.5078125 20.78125,26.9485474 20.78125,34.8632813 C20.78125,42.778015 27.2219849,49.21875 35.1367187,49.21875 C43.0514526,49.21875 49.4921874,42.778015 49.4921874,34.8632813 C49.4921874,26.9485474 43.0514526,20.5078125 35.1367187,20.5078125 Z" id="Shape"></path>
                </g>
            </g>
        </g>
    </g>
</svg>