<?xml version="1.0" encoding="UTF-8"?>
<svg width="29px" height="29px" viewBox="0 0 29 29" version="1.1" xmlns="http://www.w3.org/2000/svg" xmlns:xlink="http://www.w3.org/1999/xlink">
    <!-- Generator: Sketch 43.1 (39012) - http://www.bohemiancoding.com/sketch -->
    <title>Group 4</title>
    <desc>Created with Sketch.</desc>
    <defs></defs>
    <g id="Page-1" stroke="none" stroke-width="1" fill="none" fill-rule="evenodd">
        <g id="Контакты-Copy" transform="translate(-20.000000, -20.000000)" fill-rule="nonzero" fill="#FFFFFF">
            <g id="Group-4" transform="translate(20.000000, 20.000000)">
                <g id="IG" transform="translate(0.444444, 0.444444)">
                    <path d="M23.8984375,0 L4.10156252,0 C1.84014896,0 0,1.84014896 0,4.10156252 L0,23.8984375 C0,26.1598511 1.84014896,28 4.10156252,28 L23.8984375,28 C26.1598511,28 28,26.1598511 28,23.8984375 L28,4.10156252 C28,1.84014896 26.1598511,0 23.8984375,0 Z M14.0546875,21.328125 C9.98367312,21.328125 6.671875,18.016327 6.671875,13.9453125 C6.671875,9.87429812 9.98367312,6.5625 14.0546875,6.5625 C18.1257019,6.5625 21.4375,9.87429812 21.4375,13.9453125 C21.4375,18.016327 18.1257019,21.328125 14.0546875,21.328125 Z M22.2578125,8.203125 C20.9008789,8.203125 19.796875,7.09912108 19.796875,5.74218748 C19.796875,4.38525392 20.9008789,3.28125 22.2578125,3.28125 C23.6147461,3.28125 24.71875,4.38525392 24.71875,5.74218748 C24.71875,7.09912108 23.6147461,8.203125 22.2578125,8.203125 Z" id="Shape"></path>
                    <path d="M22.2578125,4.921875 C21.8051453,4.921875 21.4375,5.28952024 21.4375,5.74218748 C21.4375,6.19485476 21.8051453,6.5625 22.2578125,6.5625 C22.7104798,6.5625 23.078125,6.19485476 23.078125,5.74218748 C23.078125,5.28952024 22.7104798,4.921875 22.2578125,4.921875 Z" id="Shape"></path>
                    <path d="M14.0546875,8.203125 C10.888794,8.203125 8.3125,10.779419 8.3125,13.9453125 C8.3125,17.111206 10.888794,19.6875 14.0546875,19.6875 C17.220581,19.6875 19.796875,17.111206 19.796875,13.9453125 C19.796875,10.779419 17.220581,8.203125 14.0546875,8.203125 Z" id="Shape"></path>
                </g>
            </g>
        </g>
    </g>
</svg>