<?xml version="1.0" encoding="UTF-8"?>
<svg width="100px" height="100px" viewBox="0 0 100 100" version="1.1" xmlns="http://www.w3.org/2000/svg" xmlns:xlink="http://www.w3.org/1999/xlink">
    <!-- Generator: Sketch 43.1 (39012) - http://www.bohemiancoding.com/sketch -->
    <title>graphic-design</title>
    <desc>Created with Sketch.</desc>
    <defs></defs>
    <g id="Page-1" stroke="none" stroke-width="1" fill="none" fill-rule="evenodd">
        <g id="о-нас" transform="translate(-879.000000, -2509.000000)">
            <g id="graphic-design" transform="translate(879.000000, 2509.000000)">
                <circle id="Oval-3" fill="#D7263D" cx="50" cy="50" r="50"></circle>
                <g transform="translate(22.000000, 24.000000)" id="Shape" fill-rule="nonzero" fill="#FCFCFC">
                    <path d="M35.1796875,38.5195312 C34.5652085,38.5195312 34.0664062,39.0183335 34.0664062,39.6328125 C34.0664062,40.2472915 34.5652085,40.7460938 35.1796875,40.7460938 C35.7941665,40.7460938 36.2929688,40.2472915 36.2929688,39.6328125 C36.2929688,39.0183335 35.7941665,38.5195312 35.1796875,38.5195312 Z"></path>
                    <path d="M51.4335937,0 L5.56640625,0 C2.49705511,0 0,2.49705511 0,5.56640625 L0,39.6328125 C0,42.7021637 2.49705511,45.1992187 5.56640625,45.1992187 L22.9335937,45.1992187 L22.9335937,50.3203125 L21.8203125,50.3203125 C20.3339081,50.3203125 18.9366531,50.8995667 17.8846894,51.9510956 C16.8331604,53.0030593 16.2539062,54.4003144 16.2539062,55.8867187 C16.2539062,56.5016327 16.7522736,57 17.3671875,57 L39.6328125,57 C40.2477264,57 40.7460937,56.5016327 40.7460937,55.8867187 C40.7460937,52.8173676 38.2490387,50.3203125 35.1796875,50.3203125 L34.0664062,50.3203125 L34.0664062,45.1992187 L51.4335937,45.1992187 C54.5029449,45.1992187 57,42.7021637 57,39.6328125 L57,5.56640625 C57,2.49705511 54.5029449,0 51.4335937,0 Z M5.56640625,2.2265625 L51.4335937,2.2265625 C53.2752915,2.2265625 54.7734375,3.72470853 54.7734375,5.56640625 L54.7734375,34.0664062 L49.6523437,34.0664062 L49.6523437,8.4609375 C49.6523437,7.84602351 49.1539764,7.34765625 48.5390625,7.34765625 L39.6328125,7.34765625 C39.0178986,7.34765625 38.5195312,7.84602351 38.5195312,8.4609375 L38.5195312,34.0664062 L32.9470367,34.0664062 C32.9352952,32.914856 32.9052887,31.779831 32.8574524,30.6787262 C32.6626281,26.1447144 32.2186204,23.107544 31.9877014,21.7716065 C34.2847139,20.0803756 34.9118041,16.9457932 33.5075912,14.5104905 L29.648941,7.82732394 C29.4497681,7.48290256 29.0822983,7.27068331 28.684822,7.27068331 C28.2869111,7.27068331 27.9194412,7.48290256 27.7207031,7.82732394 L23.8603134,14.5109253 C22.5365525,16.8070679 23.0057831,19.7811814 25.0853577,21.5363388 C24.8444366,22.8683624 24.3582458,26.0142517 24.1468964,30.6765518 C24.0968857,31.7893982 24.0651397,32.9252929 24.0529633,34.0664062 L18.4804688,34.0664062 L18.4804688,17.3671875 C18.4804688,17.1906279 18.4387207,17.0297241 18.3704453,16.8866501 C18.3674012,16.8809967 18.3656616,16.8749085 18.3630523,16.8692551 L13.9099273,7.9630051 C13.7211914,7.58596802 13.3358917,7.34765625 12.9140625,7.34765625 C12.4922333,7.34765625 12.1069336,7.58596802 11.9181977,7.9630051 L7.46507268,16.8692551 C7.46246338,16.8749085 7.46072388,16.8809967 7.45811468,16.8866501 C7.3885346,17.0310287 7.34765625,17.1945419 7.34765625,17.3671875 L7.34765625,34.0664062 L2.2265625,34.0664062 L2.2265625,5.56640625 C2.2265625,3.72470853 3.72470853,2.2265625 5.56640625,2.2265625 L5.56640625,2.2265625 Z M40.7460938,34.0664062 L40.7460938,9.57421875 L47.4257812,9.57421875 L47.4257812,11.8007812 L46.3125,11.8007812 C45.6975861,11.8007812 45.1992187,12.2991486 45.1992187,12.9140625 C45.1992187,13.5289764 45.6975861,14.0273438 46.3125,14.0273438 L47.4257812,14.0273438 L47.4257812,17.3671875 L46.3125,17.3671875 C45.6975861,17.3671875 45.1992187,17.8655548 45.1992187,18.4804688 C45.1992187,19.0953827 45.6975861,19.59375 46.3125,19.59375 L47.4257812,19.59375 L47.4257812,22.9335938 L46.3125,22.9335938 C45.6975861,22.9335938 45.1992187,23.4319611 45.1992187,24.046875 C45.1992187,24.6617889 45.6975861,25.1601562 46.3125,25.1601562 L47.4257812,25.1601562 L47.4257812,29.6132812 L46.3125,29.6132812 C45.6975861,29.6132812 45.1992187,30.1116486 45.1992187,30.7265625 C45.1992187,31.3414764 45.6975861,31.8398438 46.3125,31.8398438 L47.4257812,31.8398438 L47.4257812,34.0664062 L40.7460938,34.0664062 Z M28.684822,22.8566208 C29.0892563,22.8566208 29.4919509,22.8100891 29.8859482,22.7231141 C30.0925141,24.0473098 30.3960571,26.3904189 30.5756607,29.6132812 L26.4317322,29.6132812 C26.6200332,26.3925934 26.9379272,24.0129546 27.1575393,22.6439667 C27.6506881,22.7844315 28.1642762,22.8566208 28.684822,22.8566208 Z M28.684822,20.6300583 C26.1403656,20.6300583 24.4995804,17.8607712 25.7889863,15.6237717 L28.684822,10.6105271 L31.5789185,15.6233368 C32.8635406,17.8512039 31.245369,20.6300583 28.684822,20.6300583 Z M26.3295364,31.8398438 L30.6735077,31.8398438 C30.696991,32.5713042 30.7130813,33.3153763 30.7209091,34.0664062 L26.2795258,34.0664062 C26.2877884,33.3201599 26.3047485,32.5760879 26.3295364,31.8398438 Z M14.0273438,34.0664062 L14.0273438,18.4804688 L16.2539062,18.4804688 L16.2539062,34.0664062 L14.0273438,34.0664062 Z M9.57421875,34.0664062 L9.57421875,18.4804688 L11.8007812,18.4804688 L11.8007812,34.0664062 L9.57421875,34.0664062 Z M10.2621918,16.2539062 L12.9140625,10.9501648 L15.5659331,16.2539062 L10.2621918,16.2539062 Z M38.3286209,54.7734375 L18.6700745,54.7734375 C18.8335876,54.3094254 19.1006012,53.8841171 19.4589385,53.5253448 C20.0903779,52.8943405 20.9288178,52.546875 21.8203125,52.546875 L35.1796875,52.546875 C36.6313018,52.546875 37.8693923,53.4775085 38.3286209,54.7734375 Z M31.8398438,50.3203125 L25.1601562,50.3203125 L25.1601562,45.1992188 L31.8398438,45.1992188 L31.8398438,50.3203125 Z M51.4335937,42.9726562 L5.56640625,42.9726562 C3.72470853,42.9726562 2.2265625,41.4745102 2.2265625,39.6328125 L2.2265625,36.2929688 L54.7734375,36.2929688 L54.7734375,39.6328125 C54.7734375,41.4745102 53.2752915,42.9726562 51.4335937,42.9726562 Z"></path>
                    <path d="M30.7265625,38.5195312 L24.046875,38.5195312 C23.4319611,38.5195312 22.9335938,39.0178986 22.9335938,39.6328125 C22.9335938,40.2477264 23.4319611,40.7460938 24.046875,40.7460938 L30.7265625,40.7460938 C31.3414764,40.7460938 31.8398438,40.2477264 31.8398438,39.6328125 C31.8398438,39.0178986 31.3414764,38.5195312 30.7265625,38.5195312 Z"></path>
                </g>
            </g>
        </g>
    </g>
</svg>