<?xml version="1.0" encoding="UTF-8"?>
<svg width="100px" height="100px" viewBox="0 0 100 100" version="1.1" xmlns="http://www.w3.org/2000/svg" xmlns:xlink="http://www.w3.org/1999/xlink">
    <!-- Generator: Sketch 43.1 (39012) - http://www.bohemiancoding.com/sketch -->
    <title>motion-graphics</title>
    <desc>Created with Sketch.</desc>
    <defs></defs>
    <g id="Page-1" stroke="none" stroke-width="1" fill="none" fill-rule="evenodd">
        <g id="о-нас" transform="translate(-745.000000, -2294.000000)">
            <g id="motion-graphics" transform="translate(745.000000, 2294.000000)">
                <circle id="Oval-3" fill="#D7263D" cx="50" cy="50" r="50"></circle>
                <g id="motion-graphic" transform="translate(21.000000, 21.000000)" fill-rule="nonzero" fill="#FCFCFC">
                    <path d="M56.05,5.9 L7.86666667,5.9 C7.86474609,4.27135417 6.5453125,2.95192057 4.91666667,2.95 L4.91666667,0 L2.95,0 L2.95,2.95 C1.32135417,2.95192057 0.00192057292,4.27135417 0,5.9 L0,53.1 C0.00192057292,54.7286458 1.32135417,56.0480794 2.95,56.05 L2.95,59 L4.91666667,59 L4.91666667,56.05 C6.5453125,56.0480794 7.86474609,54.7286458 7.86666667,53.1 L56.05,53.1 C57.6786458,53.0980794 58.9980794,51.7786458 59,50.15 L59,8.85 C58.9980794,7.22135417 57.6786458,5.90192057 56.05,5.9 Z M4.91666667,54.0833333 L2.95,54.0833333 C2.40743821,54.0828533 1.96714678,53.6425618 1.96666667,53.1 L1.96666667,5.9 C1.96714678,5.35743821 2.40743821,4.91714678 2.95,4.91666667 L4.91666667,4.91666667 C5.45922845,4.91714678 5.89951988,5.35743821 5.9,5.9 L5.9,53.1 C5.89951988,53.6425618 5.45922845,54.0828533 4.91666667,54.0833333 Z M57.0333333,50.15 C57.0328533,50.6925618 56.5925618,51.1328533 56.05,51.1333333 L7.86666667,51.1333333 L7.86666667,7.86666667 L56.05,7.86666667 C56.5925618,7.86714678 57.0328533,8.30743821 57.0333333,8.85 L57.0333333,50.15 Z" id="Shape"></path>
                    <path d="M45.2333333,40.3166667 L43.2666667,40.3166667 C42.0149332,40.3205078 40.9029215,41.1151449 40.4933594,42.2977377 L36.334839,38.8325439 C36.3641276,38.6731364 36.3804524,38.5118082 36.3833333,38.35 L36.3833333,36.3833333 C36.3814127,34.7546875 35.0619792,33.4352539 33.4333333,33.4333333 L31.4666667,33.4333333 C29.8380208,33.4352539 28.5185873,34.7546875 28.5166667,36.3833333 L28.5166667,38.35 C28.5195476,38.5118082 28.5358724,38.6731364 28.565161,38.8325439 L24.4066407,42.2977377 C23.9970785,41.1151449 22.8850668,40.3205078 21.6333333,40.3166667 L19.6666667,40.3166667 C18.0380208,40.3185873 16.7185873,41.6380208 16.7166667,43.2666667 L10.8166667,43.2666667 L10.8166667,45.2333333 L16.7166667,45.2333333 C16.7185873,46.8619792 18.0380208,48.1814127 19.6666667,48.1833333 L21.6333333,48.1833333 C23.2619792,48.1814127 24.5814127,46.8619792 24.5833333,45.2333333 L24.5833333,44.7104574 L29.5484945,40.572583 C30.0790528,41.038802 30.7603759,41.297119 31.4666667,41.3 L33.4333333,41.3 C34.1396241,41.297119 34.8209472,41.038802 35.3515055,40.572583 L40.3166667,44.7104574 L40.3166667,45.2333333 C40.3185873,46.8619792 41.6380208,48.1814127 43.2666667,48.1833333 L45.2333333,48.1833333 C46.8619792,48.1814127 48.1814127,46.8619792 48.1833333,45.2333333 L54.0833333,45.2333333 L54.0833333,43.2666667 L48.1833333,43.2666667 C48.1814127,41.6380208 46.8619792,40.3185873 45.2333333,40.3166667 Z M22.6166667,45.2333333 C22.6161866,45.7758952 22.1758952,46.2161866 21.6333333,46.2166667 L19.6666667,46.2166667 C19.1241048,46.2161866 18.6838134,45.7758952 18.6833333,45.2333333 L18.6833333,43.2666667 C18.6838134,42.7241048 19.1241048,42.2838134 19.6666667,42.2833333 L21.6333333,42.2833333 C22.1758952,42.2838134 22.6161866,42.7241048 22.6166667,43.2666667 L22.6166667,45.2333333 Z M34.4166667,38.35 C34.4161866,38.8925618 33.9758952,39.3328533 33.4333333,39.3333333 L31.4666667,39.3333333 C30.9241048,39.3328533 30.4838134,38.8925618 30.4833333,38.35 L30.4833333,36.3833333 C30.4838134,35.8407715 30.9241048,35.4004801 31.4666667,35.4 L33.4333333,35.4 C33.9758952,35.4004801 34.4161866,35.8407715 34.4166667,36.3833333 L34.4166667,38.35 Z M46.2166667,45.2333333 C46.2161866,45.7758952 45.7758952,46.2161866 45.2333333,46.2166667 L43.2666667,46.2166667 C42.7241048,46.2161866 42.2838134,45.7758952 42.2833333,45.2333333 L42.2833333,43.2666667 C42.2838134,42.7241048 42.7241048,42.2838134 43.2666667,42.2833333 L45.2333333,42.2833333 C45.7758952,42.2838134 46.2161866,42.7241048 46.2166667,43.2666667 L46.2166667,45.2333333 Z" id="Shape"></path>
                    <path d="M19.6666667,28.5166667 C24.5545248,28.5166667 28.5166667,24.5545248 28.5166667,19.6666667 C28.5166667,14.7788086 24.5545248,10.8166667 19.6666667,10.8166667 C14.7788086,10.8166667 10.8166667,14.7788086 10.8166667,19.6666667 C10.8224284,24.5521241 14.7812092,28.510905 19.6666667,28.5166667 Z M26.4717366,18.6833333 L21.6333333,18.6833333 C21.0907715,18.6828533 20.6504801,18.2425618 20.65,17.7 L20.65,12.8615967 C23.6643393,13.3014079 26.0319255,15.668994 26.4717366,18.6833333 Z M18.6833333,12.8615967 L18.6833333,17.7 C18.6852539,19.3286458 20.0046875,20.6480794 21.6333333,20.65 L26.4717366,20.65 C25.9666259,24.1598471 22.8769044,26.710848 19.3348876,26.5423177 C15.7933512,26.3733073 12.960026,23.5399821 12.7910157,19.9984457 C12.6224854,16.4564289 15.1734863,13.3667074 18.6833333,12.8615967 Z" id="Shape"></path>
                    <polygon id="Shape" points="39.3333333 11.8 41.3 11.8 41.3 13.7666667 39.3333333 13.7666667"></polygon>
                    <polygon id="Shape" points="43.2666667 11.8 50.15 11.8 50.15 13.7666667 43.2666667 13.7666667"></polygon>
                    <polygon id="Shape" points="52.1166667 11.8 54.0833333 11.8 54.0833333 13.7666667 52.1166667 13.7666667"></polygon>
                    <polygon id="Shape" points="39.3333333 15.7333333 41.3 15.7333333 41.3 17.7 39.3333333 17.7"></polygon>
                    <polygon id="Shape" points="43.2666667 15.7333333 50.15 15.7333333 50.15 17.7 43.2666667 17.7"></polygon>
                    <polygon id="Shape" points="52.1166667 15.7333333 54.0833333 15.7333333 54.0833333 17.7 52.1166667 17.7"></polygon>
                    <polygon id="Shape" points="31.4666667 23.6 33.4333333 23.6 33.4333333 25.5666667 31.4666667 25.5666667"></polygon>
                    <polygon id="Shape" points="35.4 23.6 42.2833333 23.6 42.2833333 25.5666667 35.4 25.5666667"></polygon>
                    <polygon id="Shape" points="44.25 23.6 46.2166667 23.6 46.2166667 25.5666667 44.25 25.5666667"></polygon>
                    <polygon id="Shape" points="31.4666667 19.6666667 33.4333333 19.6666667 33.4333333 21.6333333 31.4666667 21.6333333"></polygon>
                    <polygon id="Shape" points="35.4 19.6666667 50.15 19.6666667 50.15 21.6333333 35.4 21.6333333"></polygon>
                    <polygon id="Shape" points="52.1166667 19.6666667 54.0833333 19.6666667 54.0833333 21.6333333 52.1166667 21.6333333"></polygon>
                    <path d="M33.4333333,17.7 L35.4,17.7 C36.4856038,17.6990398 37.3657064,16.8189372 37.3666667,15.7333333 L37.3666667,13.7666667 C37.3657064,12.6810628 36.4856038,11.8009603 35.4,11.8 L33.4333333,11.8 C32.3477295,11.8009603 31.4676269,12.6810628 31.4666667,13.7666667 L31.4666667,15.7333333 C31.4676269,16.8189372 32.3477295,17.6990398 33.4333333,17.7 Z M33.4333333,13.7666667 L35.4,13.7666667 L35.4,15.7333333 L33.4333333,15.7333333 L33.4333333,13.7666667 Z" id="Shape"></path>
                    <path d="M52.1166667,23.6 L50.15,23.6 C49.0643962,23.6009602 48.1842936,24.4810628 48.1833333,25.5666667 L48.1833333,27.5333333 C48.1842936,28.6189372 49.0643962,29.4990398 50.15,29.5 L52.1166667,29.5 C53.2022705,29.4990398 54.0823731,28.6189372 54.0833333,27.5333333 L54.0833333,25.5666667 C54.0823731,24.4810628 53.2022705,23.6009602 52.1166667,23.6 Z M52.1166667,27.5333333 L50.15,27.5333333 L50.15,25.5666667 L52.1166667,25.5666667 L52.1166667,27.5333333 Z" id="Shape"></path>
                    <polygon id="Shape" points="31.4666667 27.5333333 33.4333333 27.5333333 33.4333333 29.5 31.4666667 29.5"></polygon>
                    <polygon id="Shape" points="35.4 27.5333333 42.2833333 27.5333333 42.2833333 29.5 35.4 29.5"></polygon>
                    <polygon id="Shape" points="44.25 27.5333333 46.2166667 27.5333333 46.2166667 29.5 44.25 29.5"></polygon>
                </g>
            </g>
        </g>
    </g>
</svg>