<?xml version="1.0" encoding="UTF-8"?>
<svg width="100px" height="100px" viewBox="0 0 100 100" version="1.1" xmlns="http://www.w3.org/2000/svg" xmlns:xlink="http://www.w3.org/1999/xlink">
    <!-- Generator: Sketch 43.1 (39012) - http://www.bohemiancoding.com/sketch -->
    <title>presentation-design</title>
    <desc>Created with Sketch.</desc>
    <defs></defs>
    <g id="Page-1" stroke="none" stroke-width="1" fill="none" fill-rule="evenodd">
        <g id="о-нас" transform="translate(-620.000000, -2210.000000)">
            <g id="presentation-design" transform="translate(620.000000, 2210.000000)">
                <circle id="Oval-3" fill="#D7263D" cx="50" cy="50" r="50"></circle>
                <g id="presentation" transform="translate(18.000000, 20.000000)" fill-rule="nonzero" fill="#FCFCFC">
                    <path d="M15.4158835,12.7863618 C14.292973,11.6257796 12.7456964,10.9725156 11.1308108,10.977131 L10.8234511,10.977131 C9.21018712,10.9738877 7.66515593,11.627027 6.54336798,12.7863618 C5.48806652,13.8713514 4.92773389,15.3439085 4.99459459,16.8558835 L5.11135135,19.5422869 C5.28823285,22.6163825 7.86049896,25.0024116 10.93921,24.948025 L11.015052,24.948025 C14.093763,25.0024116 16.6660291,22.6163825 16.8429106,19.5422869 L16.9646569,16.8558835 C17.0315177,15.3439085 16.471185,13.8713514 15.4158835,12.7863618 Z M14.8490645,19.4594594 C14.7138462,21.46316 13.0226196,23.0038254 11.015052,22.9521829 L10.93921,22.9521829 C8.93164241,23.0038254 7.2404158,21.46316 7.1051975,19.4594594 L7.07027027,18.644158 C8.97255718,18.5594594 10.7991268,17.8740125 12.2874012,16.686237 C12.9011227,17.5938462 13.8275676,18.2436175 14.8899792,18.5114345 L14.8490645,19.4594594 Z M13.5976715,14.7422869 C13.5421621,14.3166736 13.2205822,13.974262 12.7993348,13.8920582 C12.3795842,13.8052391 11.9517256,13.9985863 11.7395426,14.3710603 C11.7265696,14.3920166 10.4881497,16.3509355 6.99343036,16.6503119 C6.98482328,15.725738 7.34045738,14.8349688 7.98336798,14.1704782 C8.72844074,13.4027027 9.7535551,12.9704782 10.8234511,12.972973 L11.1308108,12.972973 C12.2007068,12.9704782 13.2258212,13.4027027 13.9708939,14.1704782 C14.5530562,14.7770894 14.8985863,15.5723077 14.9448649,16.4118088 C14.2543036,16.1032016 13.7533472,15.4824948 13.5976715,14.7422869 Z" id="Shape"></path>
                    <path d="M54.3348025,36.7364657 C53.2118918,35.5758835 51.6646154,34.9226196 50.0497297,34.9272349 L49.7423701,34.9272349 C48.1291061,34.9239917 46.5840749,35.5771309 45.4622869,36.7364657 C44.4069854,37.8214553 43.8465281,39.2940125 43.9135135,40.8059875 L44.0302703,43.4923908 C44.2071517,46.5664865 46.7794178,48.9525156 49.8581288,48.8981288 L49.9339709,48.8981288 C53.0126819,48.9525156 55.584948,46.5664865 55.7618296,43.4923908 L55.8835759,40.8059875 C55.9504366,39.2940125 55.390104,37.8214553 54.3348025,36.7364657 Z M53.8877339,40.7251559 L53.7679834,43.4095634 C53.6327651,45.413264 51.9415385,46.9539293 49.9339709,46.9022869 L49.8581288,46.9022869 C47.8505614,46.9539293 46.1593348,45.413264 46.0241165,43.4095634 L45.904366,40.7201663 C45.8658212,39.7533056 46.2266944,38.813264 46.9022869,38.1205822 C47.6473597,37.3528067 48.672474,36.9205822 49.7423701,36.923077 L50.0497297,36.923077 C51.1196257,36.9205822 52.1447401,37.3528067 52.8898129,38.1205822 C53.5666528,38.8145114 53.9276507,39.7566736 53.8877339,40.7251559 Z" id="Shape"></path>
                    <path d="M30.827526,14.5127651 C29.7567568,13.4770478 28.0575468,13.4770478 26.9867776,14.5127651 L15.8459875,25.6535551 C15.6586278,25.8409147 15.4044074,25.9461954 15.1394594,25.9459459 L4.98960499,25.9459459 C2.23534303,25.9491892 0.00324324324,28.181289 0,30.935551 L0,44.9064449 C0,46.5598752 1.34033264,47.9002079 2.99376299,47.9002079 C3.33367984,47.9002079 3.67110187,47.8424532 3.991684,47.7295634 L3.991684,48.8981288 C3.991684,49.4492308 4.43850312,49.8960499 4.98960499,49.8960499 L16.9646569,49.8960499 C17.5157588,49.8960499 17.962578,49.4492308 17.962578,48.8981288 L17.962578,32.7178379 C17.9624532,32.4653639 18.0580042,32.2221206 18.2300208,32.0372557 L30.8926403,18.4186278 C31.9533056,17.3221621 31.9241165,15.5734303 30.827526,14.5127651 Z M29.4674844,17.02316 C29.463867,17.0266528 29.4602495,17.0301455 29.456632,17.0335135 L16.7650728,30.6790853 C16.2511434,31.2335551 15.9658628,31.961788 15.966736,32.7178379 L15.966736,47.9002079 L5.98752599,47.9002079 L5.98752599,32.9313929 C5.98752599,32.3802911 5.54070686,31.9334719 4.98960499,31.9334719 C4.43850312,31.9334719 3.991684,32.3802911 3.991684,32.9313929 L3.991684,44.9064449 C3.991684,45.4575468 3.54486486,45.904366 2.99376299,45.904366 C2.44266113,45.904366 1.99584199,45.4575468 1.99584199,44.9064449 L1.99584199,30.935551 C1.99584199,29.2821206 3.33617464,27.941788 4.98960499,27.941788 L15.1394594,27.941788 C15.9341788,27.9442828 16.69684,27.6284407 17.2570478,27.0646154 L28.3978379,15.9238254 C28.7015801,15.6356756 29.1778379,15.6356756 29.4815801,15.9238254 C29.7812058,16.2313098 29.7749688,16.7235343 29.4674844,17.02316 Z" id="Shape"></path>
                    <path d="M10.977131,28.9397089 C10.4260291,28.9397089 9.97920998,29.3865281 9.97920998,29.9376299 L9.97920998,41.9126819 C9.97920998,42.4637838 10.4260291,42.910603 10.977131,42.910603 C11.5282329,42.910603 11.975052,42.4637838 11.975052,41.9126819 L11.975052,29.9376299 C11.975052,29.3865281 11.5282329,28.9397089 10.977131,28.9397089 Z" id="Shape"></path>
                    <path d="M32.375551,36.7364657 C31.253763,35.5771309 29.7087318,34.9239917 28.0954678,34.9272349 L27.7881082,34.9272349 C26.1748441,34.9239917 24.6298129,35.5771309 23.508025,36.7364657 C22.4527235,37.8214553 21.8922661,39.2940125 21.9592516,40.8059875 L22.0760083,43.4923908 C22.2528898,46.5664865 24.8251559,48.9525156 27.903867,48.8981288 L27.9797089,48.8981288 C31.0584199,48.9525156 33.630686,46.5664865 33.8075676,43.4923908 L33.9243244,40.8059875 C33.9913098,39.2940125 33.4308524,37.8214553 32.375551,36.7364657 Z M31.9334719,40.7251559 L31.8137214,43.4095634 C31.6785031,45.413264 29.9872765,46.9539293 27.9797089,46.9022869 L27.903867,46.9022869 C25.8962994,46.9539293 24.2050728,45.413264 24.0698545,43.4095634 L23.950104,40.7201663 C23.9115593,39.7533056 24.2724324,38.813264 24.948025,38.1205822 C25.6930978,37.3528067 26.718212,36.9205822 27.7881082,36.923077 L28.0954678,36.923077 C29.1653639,36.9205822 30.1904782,37.3528067 30.935551,38.1205822 C31.6123908,38.8145114 31.9733887,39.7566736 31.9334719,40.7251559 Z" id="Shape"></path>
                    <path d="M33.0980458,49.8960499 L22.7855302,49.8960499 C20.123077,49.8987942 17.9653223,52.0565489 17.962578,54.7190021 L17.962578,58.8773389 C17.962578,59.4284407 18.409397,59.8752599 18.960499,59.8752599 C19.5116009,59.8752599 19.9584199,59.4284407 19.9584199,58.8773389 L19.9584199,54.7190021 C19.9600416,53.1582536 21.2249064,51.8935135 22.7855302,51.8918918 L33.0980458,51.8918918 C34.6587942,51.8935135 35.9235343,53.1582536 35.9251559,54.7190021 L35.9251559,58.8773389 C35.9251559,59.4284407 36.371975,59.8752599 36.923077,59.8752599 C37.4741788,59.8752599 37.9209979,59.4284407 37.9209979,58.8773389 L37.9209979,54.7190021 C37.9182536,52.0565489 35.760499,49.8987942 33.0980458,49.8960499 Z" id="Shape"></path>
                    <path d="M55.0523077,49.8960499 L44.7397921,49.8960499 C42.0773389,49.8987942 39.9195842,52.0565489 39.91684,54.7190021 L39.91684,58.8773389 C39.91684,59.4284407 40.363659,59.8752599 40.9147609,59.8752599 C41.4658628,59.8752599 41.9126819,59.4284407 41.9126819,58.8773389 L41.9126819,54.7190021 C41.9143036,53.1582536 43.1791684,51.8935135 44.7397921,51.8918918 L55.0523077,51.8918918 C56.6130562,51.8935135 57.8777963,53.1582536 57.8794178,54.7190021 L57.8794178,58.8773389 C57.8794178,59.4284407 58.326237,59.8752599 58.8773389,59.8752599 C59.4284407,59.8752599 59.8752599,59.4284407 59.8752599,58.8773389 L59.8752599,54.7190021 C59.8725156,52.0565489 57.7147609,49.8987942 55.0523077,49.8960499 Z" id="Shape"></path>
                    <path d="M56.9313929,0 L21.904366,0 C20.2656548,0.015966736 18.9488981,1.35505198 18.960499,2.99376299 L18.960499,17.962578 C18.960499,18.5136798 19.4073181,18.960499 19.9584199,18.960499 C20.5095218,18.960499 20.956341,18.5136798 20.956341,17.962578 L20.956341,5.98752599 L57.8794178,5.98752599 L57.8794178,29.9376299 C57.8922661,30.4746361 57.4683991,30.9208316 56.9313929,30.935551 L22.8773389,30.935551 C22.326237,30.935551 21.8794178,31.3823701 21.8794178,31.9334719 C21.8794178,32.4845738 22.326237,32.9313929 22.8773389,32.9313929 L56.9313929,32.9313929 C58.570104,32.9154262 59.8868608,31.576341 59.8752599,29.9376299 L59.8752599,2.99376299 C59.8868608,1.35505198 58.570104,0.015966736 56.9313929,0 Z M57.8794178,3.991684 L20.956341,3.991684 L20.956341,2.99376299 C20.9434927,2.45675676 21.3673597,2.01056134 21.904366,1.99584199 L56.9313929,1.99584199 C57.4683991,2.01056134 57.8922661,2.45675676 57.8794178,2.99376299 L57.8794178,3.991684 Z" id="Shape"></path>
                    <path d="M54.8856548,12.7234927 C54.334553,12.7234927 53.8877339,13.1703119 53.8877339,13.7214137 L53.8877339,27.941788 C53.8877339,28.4928898 54.334553,28.9397089 54.8856548,28.9397089 C55.4367568,28.9397089 55.8835759,28.4928898 55.8835759,27.941788 L55.8835759,13.7214137 C55.8835759,13.1703119 55.4367568,12.7234927 54.8856548,12.7234927 Z" id="Shape"></path>
                    <path d="M50.8939709,18.960499 C50.3428691,18.960499 49.8960499,19.4073181 49.8960499,19.9584199 L49.8960499,27.941788 C49.8960499,28.4928898 50.3428691,28.9397089 50.8939709,28.9397089 C51.4450728,28.9397089 51.8918918,28.4928898 51.8918918,27.941788 L51.8918918,19.9584199 C51.8918918,19.4073181 51.4450728,18.960499 50.8939709,18.960499 Z" id="Shape"></path>
                    <path d="M46.9022869,16.9646569 C46.351185,16.9646569 45.904366,17.4114761 45.904366,17.962578 L45.904366,27.941788 C45.904366,28.4928898 46.351185,28.9397089 46.9022869,28.9397089 C47.4533887,28.9397089 47.9002079,28.4928898 47.9002079,27.941788 L47.9002079,17.962578 C47.9002079,17.4114761 47.4533887,16.9646569 46.9022869,16.9646569 Z" id="Shape"></path>
                    <path d="M42.910603,22.9521829 C42.359501,22.9521829 41.9126819,23.3990021 41.9126819,23.950104 L41.9126819,27.941788 C41.9126819,28.4928898 42.359501,28.9397089 42.910603,28.9397089 C43.4617048,28.9397089 43.9085239,28.4928898 43.9085239,27.941788 L43.9085239,23.950104 C43.9085239,23.3990021 43.4617048,22.9521829 42.910603,22.9521829 Z" id="Shape"></path>
                    <path d="M55.439501,8.15101871 C54.9809563,7.84515593 54.3612474,7.96889813 54.0553846,8.42744282 L50.6484823,13.5367984 L47.5010395,11.1767152 C47.0618296,10.8437838 46.4358835,10.930104 46.1029522,11.3693139 C46.0650312,11.4193347 46.031975,11.4727235 46.004158,11.5289813 L42.1182536,19.301788 L38.3201663,22.1538462 C37.87921,22.4845322 37.789896,23.1099792 38.1205822,23.5509355 C38.4512682,23.9918918 39.0767152,24.0812058 39.5176715,23.7505198 L43.5093556,20.7567568 C43.6350936,20.6641996 43.7376299,20.5435759 43.8087318,20.4044906 L47.2645322,13.4908939 L50.2952183,15.7671517 C50.7360499,16.0978379 51.3616217,16.0086486 51.6923077,15.5676923 C51.7034095,15.552973 51.7140125,15.5378794 51.7242412,15.5226611 L55.7159251,9.53513514 C56.021788,9.07659043 55.8980458,8.4568815 55.439501,8.15101871 Z" id="Shape"></path>
                    <path d="M35.9251559,7.98336798 L23.950104,7.98336798 C23.3990021,7.98336798 22.9521829,8.43018712 22.9521829,8.98128898 C22.9521829,9.53239085 23.3990021,9.97920998 23.950104,9.97920998 L35.9251559,9.97920998 C36.4762578,9.97920998 36.923077,9.53239085 36.923077,8.98128898 C36.923077,8.43018712 36.4762578,7.98336798 35.9251559,7.98336798 Z" id="Shape"></path>
                    <path d="M41.9126819,7.98336798 L39.91684,7.98336798 C39.365738,7.98336798 38.9189189,8.43018712 38.9189189,8.98128898 C38.9189189,9.53239085 39.365738,9.97920998 39.91684,9.97920998 L41.9126819,9.97920998 C42.4637838,9.97920998 42.910603,9.53239085 42.910603,8.98128898 C42.910603,8.43018712 42.4637838,7.98336798 41.9126819,7.98336798 Z" id="Shape"></path>
                </g>
            </g>
        </g>
    </g>
</svg>