<?xml version="1.0" encoding="UTF-8"?>
<svg width="100px" height="100px" viewBox="0 0 100 100" version="1.1" xmlns="http://www.w3.org/2000/svg" xmlns:xlink="http://www.w3.org/1999/xlink">
    <!-- Generator: Sketch 43.1 (39012) - http://www.bohemiancoding.com/sketch -->
    <title>email</title>
    <desc>Created with Sketch.</desc>
    <defs></defs>
    <g id="Page-1" stroke="none" stroke-width="1" fill="none" fill-rule="evenodd">
        <g id="email" fill-rule="nonzero" fill="#D7263D">
            <path d="M49.9986667,0 C22.3856667,0 0.000333333333,22.386 0.000333333333,49.999 C0.000333333333,77.6113333 22.3856667,99.999 49.9986667,99.999 C77.6116667,99.999 99.9986667,77.6113333 99.9986667,49.999 C99.9986667,22.386 77.6116667,0 49.9986667,0 Z M49.9996667,17.562 L79.5873333,36.012 L20.412,36.012 L49.9996667,17.562 Z M79.956,65.4743333 L79.953,65.4743333 C79.953,68.4336667 77.5546667,70.8316667 74.5956667,70.8316667 L25.4036667,70.8316667 C22.4443333,70.8316667 20.0463333,68.4333333 20.0463333,65.4743333 L20.0463333,37.186 C20.0463333,36.873 20.0783333,36.5686667 20.1303333,36.2696667 L48.3996667,53.8973333 C48.4343333,53.919 48.4713333,53.9336667 48.507,53.9536667 C48.5443333,53.9743333 48.5823333,53.9943333 48.6203333,54.0133333 C48.82,54.1163333 49.0256667,54.1993333 49.236,54.2536667 C49.2576667,54.2596667 49.2793333,54.2623333 49.301,54.2673333 C49.5316667,54.3216667 49.7653333,54.3556667 49.9986667,54.3556667 L50.0003333,54.3556667 L50.0036667,54.3556667 C50.237,54.3556667 50.4706667,54.3226667 50.7013333,54.2673333 C50.723,54.262 50.7446667,54.2596667 50.7663333,54.2536667 C50.9763333,54.1993333 51.1813333,54.1163333 51.382,54.0133333 C51.42,53.9943333 51.458,53.9743333 51.4953333,53.9536667 C51.5306667,53.9336667 51.568,53.919 51.6026667,53.8973333 L79.872,36.2696667 C79.924,36.5686667 79.956,36.8723333 79.956,37.186 L79.956,65.4743333 Z" id="Shape"></path>
        </g>
    </g>
</svg>