<?xml version="1.0" encoding="UTF-8"?>
<svg width="100px" height="100px" viewBox="0 0 100 100" version="1.1" xmlns="http://www.w3.org/2000/svg" xmlns:xlink="http://www.w3.org/1999/xlink">
    <!-- Generator: Sketch 43.1 (39012) - http://www.bohemiancoding.com/sketch -->
    <title>Instagram</title>
    <desc>Created with Sketch.</desc>
    <defs></defs>
    <g id="Page-1" stroke="none" stroke-width="1" fill="none" fill-rule="evenodd">
        <g id="Instagram">
            <circle id="Oval-3" fill="#D7263D" cx="50" cy="50" r="50"></circle>
            <g id="Group-4" transform="translate(21.000000, 21.000000)" fill-rule="nonzero" fill="#FFFFFF">
                <g id="IG" transform="translate(0.918519, 0.918519)">
                    <path d="M49.3901041,0 L8.47656254,0 C3.80297451,0 0,3.80297451 0,8.47656254 L0,49.3901041 C0,54.0636922 3.80297451,57.8666667 8.47656254,57.8666667 L49.3901041,57.8666667 C54.0636922,57.8666667 57.8666667,54.0636922 57.8666667,49.3901041 L57.8666667,8.47656254 C57.8666667,3.80297451 54.0636922,0 49.3901041,0 Z M29.0463541,44.0781251 C20.6329244,44.0781251 13.7885417,37.2337424 13.7885417,28.8203125 C13.7885417,20.4068828 20.6329244,13.5625 29.0463541,13.5625 C37.4597839,13.5625 44.3041667,20.4068828 44.3041667,28.8203125 C44.3041667,37.2337424 37.4597839,44.0781251 29.0463541,44.0781251 Z M45.9994792,16.953125 C43.1951497,16.953125 40.9135416,14.6715169 40.9135416,11.8671875 C40.9135416,9.0628581 43.1951497,6.78125 45.9994792,6.78125 C48.8038086,6.78125 51.0854167,9.0628581 51.0854167,11.8671875 C51.0854167,14.6715169 48.8038086,16.953125 45.9994792,16.953125 Z" id="Shape"></path>
                    <path d="M45.9994792,10.171875 C45.0639669,10.171875 44.3041667,10.9316752 44.3041667,11.8671875 C44.3041667,12.8026998 45.0639669,13.5625 45.9994792,13.5625 C46.9349916,13.5625 47.6947917,12.8026998 47.6947917,11.8671875 C47.6947917,10.9316752 46.9349916,10.171875 45.9994792,10.171875 Z" id="Shape"></path>
                    <path d="M29.0463541,16.953125 C22.5035075,16.953125 17.1791667,22.2774659 17.1791667,28.8203125 C17.1791667,35.3631591 22.5035075,40.6875 29.0463541,40.6875 C35.5892008,40.6875 40.9135416,35.3631591 40.9135416,28.8203125 C40.9135416,22.2774659 35.5892008,16.953125 29.0463541,16.953125 Z" id="Shape"></path>
                </g>
            </g>
        </g>
    </g>
</svg>