<?xml version="1.0" encoding="UTF-8"?>
<svg width="100px" height="100px" viewBox="0 0 100 100" version="1.1" xmlns="http://www.w3.org/2000/svg" xmlns:xlink="http://www.w3.org/1999/xlink">
    <!-- Generator: Sketch 43.1 (39012) - http://www.bohemiancoding.com/sketch -->
    <title>phone</title>
    <desc>Created with Sketch.</desc>
    <defs></defs>
    <g id="Page-1" stroke="none" stroke-width="1" fill="none" fill-rule="evenodd">
        <g id="phone" fill-rule="nonzero" fill="#D7263D">
            <path d="M49.9191358,0 C22.3516461,0 0.000205761316,22.3514403 0.000205761316,49.91893 C0.000205761316,77.4860082 22.3516461,99.8378601 49.9191358,99.8378601 C77.4866255,99.8378601 99.8376543,77.4858025 99.8376543,49.91893 C99.8378601,22.3514403 77.4866255,0 49.9191358,0 Z M76.2796296,72.8372428 L72.282716,76.8349794 C71.5691358,77.5475309 69.4796296,77.9921811 69.4125514,77.9921811 C56.768107,78.1024691 44.5934156,73.1358025 35.6481481,64.1897119 C26.6783951,55.2148148 21.7059671,42.9967078 21.8395062,30.3096708 C21.8395062,30.3039095 22.2971193,28.2742798 23.0100823,27.568107 L27.0067901,23.5707819 C28.4693416,22.1014403 31.2788066,21.4374486 33.2469136,22.0958848 L34.0876543,22.3763374 C36.05,23.0341564 38.1102881,25.2039095 38.6524691,27.2028807 L40.662963,34.581893 C41.205144,36.5866255 40.4738683,39.4386831 39.0117284,40.9012346 L36.3430041,43.5703704 C38.9631687,53.2703704 46.5740741,60.882716 56.2757202,63.5092593 L58.9434156,60.8395062 C60.4127572,59.3701646 63.263786,58.6395062 65.2641975,59.1808642 L72.6421811,61.1985597 C74.6415638,61.7479424 76.8109053,63.7952675 77.4685185,65.7569959 L77.7489712,66.6098765 C78.400823,68.572428 77.7419753,71.3812757 76.2796296,72.8372428 Z" id="Shape"></path>
        </g>
    </g>
</svg>