<?xml version="1.0" encoding="UTF-8"?>
<svg width="100px" height="100px" viewBox="0 0 100 100" version="1.1" xmlns="http://www.w3.org/2000/svg" xmlns:xlink="http://www.w3.org/1999/xlink">
    <!-- Generator: Sketch 43.1 (39012) - http://www.bohemiancoding.com/sketch -->
    <title>skype</title>
    <desc>Created with Sketch.</desc>
    <defs></defs>
    <g id="Page-1" stroke="none" stroke-width="1" fill="none" fill-rule="evenodd">
        <g id="skype" fill-rule="nonzero">
            <circle id="Oval-2" fill="#D7263D" cx="50" cy="50" r="50"></circle>
            <path d="M82.1654364,54.9669077 C81.0550374,53.4321446 80.5404239,51.5576808 80.5425187,49.6633167 C80.5426933,49.6523192 80.5426933,49.6413217 80.5426933,49.6301496 C80.5426933,32.7587531 66.8656359,19.0816958 49.9942394,19.0816958 C46.3034414,19.0816958 42.7669576,19.7385786 39.4921446,20.9390524 C37.7204988,21.5884289 35.7797007,21.7132419 33.9633666,21.201596 C32.3589526,20.7496509 30.6450873,20.5590274 28.869601,20.6812219 C21.4113716,21.1944389 15.4070823,27.306783 15.0205985,34.7726933 C14.8360848,38.3362344 15.9047631,41.6419451 17.8228678,44.293217 C18.9332668,45.82798 19.4478803,47.7024439 19.445611,49.596808 L19.445611,49.6299751 C19.445611,66.5013716 33.1224938,80.1784289 49.9940648,80.1784289 C53.6850374,80.1784289 57.2215212,79.5215461 60.4961596,78.3210723 C62.2678055,77.6716958 64.2086035,77.5468828 66.0249377,78.0585287 C67.6293516,78.5104738 69.3430424,78.7010973 71.1187032,78.5789027 C78.5769327,78.0656858 84.5810474,71.9535162 84.9677057,64.4877805 C85.1522195,60.9242394 84.0835411,57.6183541 82.1654364,54.9669077 Z M51.1124938,44.1533915 C57.2721446,45.6181546 66.5802244,47.8316209 66.5802244,58.0846135 C66.5802244,63.1354364 64.0928678,66.988404 59.5760349,68.9335661 C56.3528928,70.3216958 52.7050374,70.5090025 49.5616708,70.5090025 C39.90202,70.5090025 33.8010224,62.9978803 33.545985,62.6780798 C31.9640898,60.69399 32.2896509,57.8028678 34.2739152,56.2209726 C36.2576559,54.6383791 39.1487781,54.964813 40.7310224,56.9483791 C40.7451621,56.9653117 44.3937157,61.1555362 49.5616708,61.3194514 C55.7848628,61.5168828 57.2066833,59.6652868 57.3904988,58.084788 C57.6151621,56.1544638 55.89798,54.7373566 48.9859601,53.0936658 C43.1272569,51.7002993 34.2725187,49.5947132 34.2725187,40.1520449 C34.2725187,37.2115212 35.4684539,27.6171571 50.8583292,27.6171571 C60.5759352,27.6171571 66.3119202,35.2681047 66.5514214,35.5938404 C68.054414,37.6385037 67.6155611,40.5146135 65.5708978,42.0174314 C63.5351372,43.5137905 60.677182,43.085586 59.1684289,41.0657107 C59.0601995,40.9265835 55.7768329,37.2736658 50.8583292,36.8067082 C47.1366334,36.453217 43.4620698,37.7952618 43.4620698,39.7777805 C43.4620698,41.8783042 44.5173067,42.5849377 51.1124938,44.1533915 Z" id="Shape" fill="#FCFCFC"></path>
        </g>
    </g>
</svg>