<?xml version="1.0" encoding="UTF-8"?>
<svg width="100px" height="100px" viewBox="0 0 100 100" version="1.1" xmlns="http://www.w3.org/2000/svg" xmlns:xlink="http://www.w3.org/1999/xlink">
    <!-- Generator: Sketch 43.1 (39012) - http://www.bohemiancoding.com/sketch -->
    <title>whatsapp</title>
    <desc>Created with Sketch.</desc>
    <defs></defs>
    <g id="Page-1" stroke="none" stroke-width="1" fill="none" fill-rule="evenodd">
        <g id="whatsapp">
            <circle id="Oval-3" fill="#D7263D" cx="50" cy="50" r="50"></circle>
            <g id="Group-7" transform="translate(16.000000, 14.000000)">
                <path d="M34.5,66 C51.8969696,66 66,51.8969696 66,34.5 C66,17.1030304 51.8969696,3 34.5,3 C17.1030304,3 3,17.1030304 3,34.5 C3,39.0635262 5.06557258,47.4899833 6.5,54.5 C7.04384155,57.1577423 4.88128326,60.3145923 4.5,61.5 C4.11871674,62.6854077 4.71687102,62.5272133 5.5,63.5 C6.2542547,64.4369197 10.1489743,63.5 11,63.5 C16,63.5 25.4740418,66 34.5,66 Z" id="Oval-4" fill="#FCFCFC"></path>
                <path d="M16.6883011,64.0763169 C22.0194397,67.2843704 28.1149521,68.9752578 34.3778687,68.9752578 C53.3561325,68.9752578 69,53.4887925 69,34.4873657 C69,15.508049 53.3782425,0 34.3778687,0 C15.4354019,0 0.0247421602,15.471199 0.0247421602,34.4873657 C0.0247421602,40.8339844 1.71615601,46.9758225 4.92368313,52.3111724 L0,69 L16.6883011,64.0763169 Z M4.06665799,34.4873657 C4.06665799,17.6995698 17.664299,4.04138943 34.3778687,4.04138943 C51.2398911,4.04138943 64.9586106,17.6995698 64.9586106,34.4873657 C64.9586106,51.2756882 51.2398911,64.933342 34.3778687,64.933342 C28.5755767,64.933342 22.9370041,63.289833 18.0733337,60.1796951 L17.2963257,59.6832734 L5.9775925,63.022934 L9.31672662,51.7036743 L8.8203049,50.9271927 C5.71016696,46.0624695 4.06665799,40.3780976 4.06665799,34.4873657 L4.06665799,34.4873657 Z" id="Shape" fill="#FCFCFC" fill-rule="nonzero"></path>
                <path d="M16.7956924,28.1328506 C17.4632034,31.6383362 19.4446792,38.3808289 25.2138062,44.1499558 C30.9829331,49.9190826 37.7254258,51.9010849 41.2314377,52.5685959 C45.2459793,53.3329697 51.1372375,53.4482574 54.0162735,50.5692215 L55.6213531,48.9641418 C56.4315262,48.1539688 56.8779373,47.0763702 56.8779373,45.930336 C56.8779373,44.7843018 56.4315262,43.7072295 55.6213531,42.8970566 L49.2026138,36.4783173 C48.3919143,35.6676177 47.3148423,35.2217331 46.1688081,35.2217331 C45.0227737,35.2217331 43.9457016,35.6676177 43.1350022,36.4783173 L41.5304489,38.0828706 C40.5502395,39.0630798 38.6998443,39.0672913 37.7122651,38.0949783 L31.309845,31.4240799 C31.3003692,31.4140777 31.2908936,31.4040757 31.2808914,31.3945999 C30.2991028,30.4128113 30.2991028,28.8151016 31.2808914,27.833313 L32.8854446,26.2287598 C34.562645,24.5515595 34.562645,21.837822 32.8854446,20.161148 L26.4667053,13.7424087 C24.7942429,12.0699463 22.0726089,12.0699463 20.3996201,13.7424087 L18.7950669,15.3474883 L18.7950669,15.3469619 C16.4972076,17.6453476 15.7312546,22.5442886 16.7956924,28.1328506 L16.7956924,28.1328506 Z M21.6530457,18.2054673 C23.337616,16.5593262 23.2475967,16.5277405 23.4334258,16.5277405 C23.4971238,16.5277405 23.5608215,16.5519561 23.6092529,16.6003876 C30.3728027,23.400261 30.1011658,23.0007019 30.1011658,23.1954804 C30.1011658,23.2633896 30.0764236,23.322876 30.0285186,23.3713074 L28.423439,24.9758606 C25.8676299,27.5316697 25.8576279,31.6688691 28.4071197,34.2362595 L34.8132248,40.9113694 C34.823227,40.920845 34.8327026,40.9308472 34.8427048,40.9408493 C37.3979873,43.4961319 41.8247222,43.5045547 44.3884277,40.9408493 L45.992981,39.3362961 C46.0898437,39.2394333 46.2477722,39.2394333 46.344635,39.3362961 C53.1081848,46.135643 52.8365479,45.736084 52.8365479,45.9308624 C52.8365479,45.9992981 52.8118057,46.0582581 52.7639008,46.1066895 L51.1588211,47.7112427 C50.0591125,48.8109512 46.5562592,49.4689865 41.9873886,48.5988007 C38.9383164,48.017624 33.0754853,46.2962036 28.0717849,41.2925034 C23.0680847,36.2888032 21.3466645,30.425972 20.7660141,27.3768997 C19.8953018,22.8080292 20.5533371,19.3046494 21.6530457,18.2054673 L21.6530457,18.2054673 Z" id="Shape" fill="#D7263D" fill-rule="nonzero"></path>
            </g>
        </g>
    </g>
</svg>