<?xml version="1.0" encoding="UTF-8"?>
<svg width="100px" height="100px" viewBox="0 0 100 100" version="1.1" xmlns="http://www.w3.org/2000/svg" xmlns:xlink="http://www.w3.org/1999/xlink">
    <!-- Generator: Sketch 43.1 (39012) - http://www.bohemiancoding.com/sketch -->
    <title>messenger</title>
    <desc>Created with Sketch.</desc>
    <defs></defs>
    <g id="Page-1" stroke="none" stroke-width="1" fill="none" fill-rule="evenodd">
        <g id="messenger" fill-rule="nonzero">
            <circle id="Oval-2" fill="#D7263D" cx="50" cy="50" r="50"></circle>
            <g id="007-messenger" transform="translate(15.000000, 15.000000)">
                <path d="M34.9351852,0.00682261209 C16.0563353,-0.365419103 0.434463938,14.605575 0.00341130604,33.4830604 C0.0526705653,43.0924366 4.30766082,52.1984405 11.6472904,58.4010136 L11.6472904,68.4148343 C11.6472904,69.2186745 12.2989864,69.8703704 13.1028265,69.8703704 C13.3755945,69.8703704 13.6429045,69.7936842 13.874191,69.6491813 L21.9870955,64.5812086 C26.1205068,66.1621442 30.5097661,66.9683041 34.9351852,66.9594347 C53.8140351,67.3316764 69.4359064,52.3606823 69.8669591,33.4831969 C69.4359064,14.605575 53.8140351,-0.365419103 34.9351852,0.00682261209 Z" id="Shape" fill="#FCFCFC"></path>
                <path d="M57.9318908,23.8768226 C57.4987914,23.2963548 56.7047758,23.1226511 56.0689084,23.4692398 L40.9318519,31.7218713 L31.5148733,23.6467641 C30.9374074,23.1517154 30.0761209,23.1846004 29.5383626,23.7224951 L12.0724756,41.1883821 C11.5057895,41.7584795 11.5085185,42.680078 12.0787524,43.2467641 C12.5346394,43.699922 13.2336842,43.8003509 13.7987329,43.4938791 L28.9357895,35.2412476 L38.361501,43.3192203 C38.9389669,43.814269 39.8002534,43.781384 40.3380117,43.2434893 L57.8038986,25.7776023 C58.3128655,25.2638596 58.3674464,24.4542885 57.9318908,23.8768226 Z" id="Shape" fill="#D7263D"></path>
            </g>
        </g>
    </g>
</svg>