<?xml version="1.0" encoding="UTF-8"?>
<svg width="100px" height="100px" viewBox="0 0 100 100" version="1.1" xmlns="http://www.w3.org/2000/svg" xmlns:xlink="http://www.w3.org/1999/xlink">
    <!-- Generator: Sketch 43.1 (39012) - http://www.bohemiancoding.com/sketch -->
    <title>viion</title>
    <desc>Created with Sketch.</desc>
    <defs></defs>
    <g id="Page-1" stroke="none" stroke-width="1" fill="none" fill-rule="evenodd">
        <g id="viion">
            <circle id="Oval-2" fill="#D7263D" cx="50" cy="50" r="50"></circle>
            <g id="vision" transform="translate(11.000000, 23.000000)" fill-rule="nonzero" fill="#FCFCFC">
                <path d="M30.9364453,27.8682422 C30.3423047,27.2725781 29.3764453,27.2725781 28.7823047,27.8682422 C28.1866406,28.4623828 28.1866406,29.4282422 28.7823047,30.0223828 C29.3764453,30.6180469 30.3423047,30.6180469 30.9364453,30.0223828 C31.5321094,29.4282422 31.5321094,28.4623828 30.9364453,27.8682422 Z" id="Shape"></path>
                <path d="M39,30.46875 C36.4799297,30.46875 34.4296875,32.5189922 34.4296875,35.0390625 C34.4296875,37.5591328 36.4799297,39.609375 39,39.609375 C41.5200703,39.609375 43.5703125,37.5591328 43.5703125,35.0390625 C43.5703125,32.5189922 41.5200703,30.46875 39,30.46875 Z M39,36.5625 C38.1599766,36.5625 37.4765625,35.8790859 37.4765625,35.0390625 C37.4765625,34.1990391 38.1599766,33.515625 39,33.515625 C39.8400234,33.515625 40.5234375,34.1990391 40.5234375,35.0390625 C40.5234375,35.8790859 39.8400234,36.5625 39,36.5625 Z" id="Shape"></path>
                <path d="M39,22.8515625 C37.2971016,22.8515625 35.650418,23.195707 34.1061094,23.8745508 C33.3358594,24.2132109 32.9859258,25.1120391 33.3244336,25.8822891 C33.6629414,26.6525391 34.5619219,27.0023203 35.3321719,26.6639648 C36.4876992,26.1560508 37.7218359,25.8984375 39,25.8984375 C44.0401406,25.8984375 48.140625,29.9989219 48.140625,35.0390625 C48.140625,40.0792031 44.0401406,44.1796875 39,44.1796875 C33.9598594,44.1796875 29.859375,40.0792031 29.859375,35.0390625 C29.859375,34.9869609 29.8592227,34.9360781 29.8604414,34.8839766 C29.8799414,34.0428867 29.2138945,33.3451523 28.3728047,33.3256523 C27.5303438,33.3046289 26.8339805,33.9720469 26.8144805,34.8132891 C26.8126523,34.8891562 26.8125,34.9631953 26.8125,35.0390625 C26.8125,41.75925 32.2798125,47.2265625 39,47.2265625 C45.7201875,47.2265625 51.1875,41.75925 51.1875,35.0390625 C51.1875,28.318875 45.7201875,22.8515625 39,22.8515625 Z" id="Shape"></path>
                <path d="M39,0 C38.1586055,0 37.4765625,0.682042969 37.4765625,1.5234375 L37.4765625,10.6640625 C37.4765625,11.505457 38.1586055,12.1875 39,12.1875 C39.8413945,12.1875 40.5234375,11.505457 40.5234375,10.6640625 L40.5234375,1.5234375 C40.5234375,0.682042969 39.8413945,0 39,0 Z" id="Shape"></path>
                <path d="M21.9803086,11.2944609 L15.5178867,4.83203906 C14.9229844,4.23713672 13.9583438,4.23713672 13.3632891,4.83203906 C12.7683867,5.42694141 12.7683867,6.39158203 13.3632891,6.98663672 L19.8257109,13.4490586 C20.4206133,14.0439609 21.3854063,14.0441133 21.9803086,13.4490586 C22.5752109,12.8541563 22.5752109,11.8895156 21.9803086,11.2944609 Z" id="Shape"></path>
                <path d="M64.6367109,4.83203906 C64.0418086,4.23713672 63.077168,4.23713672 62.4821133,4.83203906 L56.0196914,11.2944609 C55.4247891,11.8893633 55.4247891,12.8540039 56.0196914,13.4490586 C56.6144414,14.0439609 57.5792344,14.0441133 58.1742891,13.4490586 L64.6367109,6.98663672 C65.2316133,6.39173438 65.2316133,5.42709375 64.6367109,4.83203906 Z" id="Shape"></path>
                <path d="M77.6183789,35.2995703 C67.9407422,24.3431602 53.5710703,15.234375 39,15.234375 C24.4269492,15.234375 10.0574297,24.3454453 0.381621094,35.2995703 C-0.175347656,35.9302734 -0.115628906,36.8929336 0.514921875,37.4499023 C1.145625,38.0068711 2.1084375,37.9471523 2.66525391,37.3166016 C2.98989844,36.9489961 3.32246484,36.5827617 3.65929687,36.2188125 C11.1873633,47.5934063 24.8340117,54.84375 39,54.84375 C53.1659883,54.84375 66.8126367,47.5934063 74.3407031,36.2188125 C74.6775352,36.5829141 75.0101016,36.9491484 75.3347461,37.3166016 C75.8898867,37.9451719 76.8525469,38.0085469 77.4850781,37.4499023 C78.1156289,36.8929336 78.1753477,35.9301211 77.6183789,35.2995703 Z M39,51.796875 C25.6066992,51.796875 12.7251211,44.8379648 5.83644141,33.9757031 C11.2641445,28.6572305 23.8053867,18.28125 39,18.28125 C54.1947656,18.28125 66.7358555,28.6572305 72.1635586,33.9755508 C65.2748789,44.8379648 52.3933008,51.796875 39,51.796875 Z" id="Shape"></path>
            </g>
        </g>
    </g>
</svg>