<?xml version="1.0" encoding="UTF-8"?>
<svg width="29px" height="29px" viewBox="0 0 29 29" version="1.1" xmlns="http://www.w3.org/2000/svg" xmlns:xlink="http://www.w3.org/1999/xlink">
    <!-- Generator: Sketch 43.1 (39012) - http://www.bohemiancoding.com/sketch -->
    <title>facebook-logo</title>
    <desc>Created with Sketch.</desc>
    <defs></defs>
    <g id="Page-1" stroke="none" stroke-width="1" fill="none" fill-rule="evenodd">
        <g id="Контакты-Copy" transform="translate(-78.000000, -20.000000)" fill-rule="nonzero" fill="#FFFFFF">
            <g id="facebook-logo" transform="translate(78.000000, 20.000000)">
                <path d="M29,4.83333333 C29,2.28777778 26.7122222,0 24.1666667,0 L4.83333333,0 C2.28777778,0 0,2.28777778 0,4.83333333 L0,24.1666667 C0,26.7122222 2.28777778,29 4.83333333,29 L14.5,29 L14.5,18.0444444 L10.9555556,18.0444444 L10.9555556,13.2111111 L14.5,13.2111111 L14.5,11.3422222 C14.5,8.08777778 16.9488889,5.15555556 19.9455556,5.15555556 L23.8444444,5.15555556 L23.8444444,9.98888889 L19.9455556,9.98888889 C19.5266667,9.98888889 19.0111111,10.5044444 19.0111111,11.2777778 L19.0111111,13.2111111 L23.8444444,13.2111111 L23.8444444,18.0444444 L19.0111111,18.0444444 L19.0111111,29 L24.1666667,29 C26.7122222,29 29,26.7122222 29,24.1666667 L29,4.83333333 Z" id="Facebook__x28_alt_x29_"></path>
            </g>
        </g>
    </g>
</svg>