<?xml version="1.0" encoding="UTF-8"?>
<svg width="480px" height="480px" viewBox="0 0 480 480" version="1.1" xmlns="http://www.w3.org/2000/svg" xmlns:xlink="http://www.w3.org/1999/xlink">
    <!-- Generator: Sketch 43.1 (39012) - http://www.bohemiancoding.com/sketch -->
    <title>social-media</title>
    <desc>Created with Sketch.</desc>
    <defs></defs>
    <g id="Page-1" stroke="none" stroke-width="1" fill="none" fill-rule="evenodd">
        <g id="social-media" fill-rule="nonzero" fill="#D7263D">
            <rect id="Rectangle-path" x="160" y="40" width="160" height="16"></rect>
            <path d="M396,300 C396,284.562 383.437,272 368,272 L352,272 L352,160 L336,160 L336,272 L316,272 C300.562,272 288,284.563 288,300 C288,307.838 291.258,314.912 296.466,320 C291.258,325.088 288,332.162 288,340 C288,345.393 289.605,350.39 292.259,354.668 C282.689,359.125 276,368.768 276,380 C276,384.311 277.061,388.349 278.809,392 L216,392 C216,367.539 203.742,345.891 185.047,332.875 C203.125,325.984 216,308.469 216,288 C216,283.582 212.422,280 208,280 L144,280 L144,200 L128,200 L128,280 C114.766,280 104,290.766 104,304 L104,480 L120,480 L120,304 C120,299.59 123.586,296 128,296 L198.984,296 C195.429,309.785 182.882,320 168,320 L144,320 C139.578,320 136,323.582 136,328 C136,332.418 139.578,336 144,336 C174.875,336 200,361.121 200,392 L200,400 C200,404.418 203.578,408 208,408 L254.809,408 C253.061,411.651 252,415.689 252,420 C252,435.438 264.563,448 280,448 L280,480 L296,480 L296,448 L328,448 L332,448 C347.438,448 360,435.437 360,420 C360,415.643 358.913,411.567 357.129,407.886 C372.034,407.278 384,395.051 384,380 C384,374.607 382.395,369.61 379.741,365.332 C389.311,360.875 396,351.232 396,340 C396,332.162 392.742,325.088 387.534,320 C392.742,314.912 396,307.838 396,300 Z M332,432 L328,432 L288,432 L280,432 C273.383,432 268,426.617 268,420 C268,413.383 273.383,408 280,408 L304,408 L332,408 C338.617,408 344,413.383 344,420 C344,426.617 338.617,432 332,432 Z M356,392 L332,392 L304,392 C297.383,392 292,386.617 292,380 C292,373.383 297.383,368 304,368 L316,368 L356,368 C362.617,368 368,373.383 368,380 C368,386.617 362.617,392 356,392 Z M368,352 L356,352 L316,352 C309.383,352 304,346.617 304,340 C304,333.383 309.383,328 316,328 L368,328 C374.617,328 380,333.383 380,340 C380,346.617 374.617,352 368,352 Z M368,312 L316,312 C309.383,312 304,306.617 304,300 C304,293.383 309.383,288 316,288 L368,288 C374.617,288 380,293.383 380,300 C380,306.617 374.617,312 368,312 Z" id="Shape"></path>
            <path d="M119.977,101.828 C119.813,99.531 118.672,97.414 116.836,96.023 L108.508,89.71 C106.516,79.625 97.664,72 87.078,72 C75.133,72 65.39,81.711 65.234,93.707 C58.843,92.59 52.734,90.137 47.265,86.453 L44.476,84.57 C42.031,82.918 38.859,82.738 36.242,84.136 C33.633,85.523 32,88.242 32,91.199 L32,97.762 C32,107.403 34.906,116.598 40.297,124.321 L34.313,130.376 C32.04,132.669 31.375,136.103 32.618,139.083 C33.859,142.059 36.773,144 40,144 L78.766,144 C94.227,144 107.008,132.215 108.727,117.09 L117.688,108.024 C119.305,106.387 120.141,104.129 119.977,101.828 Z M95.234,107.977 C93.75,109.473 92.921,111.497 92.921,113.602 C92.921,121.54 86.569,128 78.765,128 L58.414,128 C59.68,125.086 59.133,121.57 56.766,119.176 C53.032,115.395 50.36,110.637 49.008,105.508 C56.641,108.727 64.844,110.399 73.235,110.399 C77.657,110.399 81.235,106.817 81.235,102.399 L81.235,94 C81.235,90.691 83.86,88 87.079,88 C90.298,88 92.923,90.691 92.923,94 C92.923,96.504 94.095,98.863 96.087,100.375 L99.9,103.262 L95.234,107.977 Z" id="Shape"></path>
            <path d="M264,136 L264,120 L240,120 C235.578,120 232,123.582 232,128 L232,152 L216,152 L216,168 L232,168 L232,200 L248,200 L248,168 L264,168 L264,152 L248,152 L248,136 L264,136 Z" id="Shape"></path>
            <path d="M288,88 L192,88 C178.766,88 168,98.766 168,112 L168,208 C168,221.234 178.766,232 192,232 L288,232 C301.234,232 312,221.234 312,208 L312,112 C312,98.766 301.234,88 288,88 Z M296,208 C296,212.41 292.414,216 288,216 L192,216 C187.586,216 184,212.41 184,208 L184,112 C184,107.59 187.586,104 192,104 L288,104 C292.414,104 296,107.59 296,112 L296,208 Z" id="Shape"></path>
            <path d="M120,40 L24,40 C10.766,40 0,50.766 0,64 L0,160 C0,173.234 10.766,184 24,184 L120,184 C133.234,184 144,173.234 144,160 L144,64 C144,50.766 133.234,40 120,40 Z M128,160 C128,164.41 124.414,168 120,168 L24,168 C19.586,168 16,164.41 16,160 L16,64 C16,59.59 19.586,56 24,56 L120,56 C124.414,56 128,59.59 128,64 L128,160 Z" id="Shape"></path>
            <path d="M456,0 L360,0 C346.766,0 336,10.766 336,24 L336,120 C336,133.234 346.766,144 360,144 L456,144 C469.234,144 480,133.234 480,120 L480,24 C480,10.766 469.234,0 456,0 Z M464,120 C464,124.41 460.414,128 456,128 L360,128 C355.586,128 352,124.41 352,120 L352,80 L368.809,80 C372.526,98.234 388.685,112 408,112 C427.315,112 443.474,98.234 447.191,80 L464,80 L464,120 Z M384,72 C384,58.766 394.766,48 408,48 C421.234,48 432,58.766 432,72 C432,85.234 421.234,96 408,96 C394.766,96 384,85.234 384,72 Z M464,64 L447.191,64 C443.474,45.766 427.315,32 408,32 C388.685,32 372.526,45.766 368.809,64 L352,64 L352,24 C352,19.59 355.586,16 360,16 L456,16 C460.414,16 464,19.59 464,24 L464,64 Z" id="Shape"></path>
            <rect id="Rectangle-path" x="232" y="328" width="16" height="16"></rect>
        </g>
    </g>
</svg>