<?xml version="1.0" encoding="UTF-8"?>
<svg width="100px" height="100px" viewBox="0 0 100 100" version="1.1" xmlns="http://www.w3.org/2000/svg" xmlns:xlink="http://www.w3.org/1999/xlink">
    <!-- Generator: Sketch 43.1 (39012) - http://www.bohemiancoding.com/sketch -->
    <title>digital-art-direction</title>
    <desc>Created with Sketch.</desc>
    <defs></defs>
    <g id="Page-1" stroke="none" stroke-width="1" fill="none" fill-rule="evenodd">
        <g id="о-нас" transform="translate(-925.000000, -2659.000000)">
            <g id="digital-art-direction" transform="translate(925.000000, 2659.000000)">
                <circle id="Oval-3" fill="#D7263D" cx="50" cy="50" r="50"></circle>
                <g id="Digital-art" transform="translate(33.000000, 18.000000)" fill-rule="nonzero" fill="#FCFCFC">
                    <path d="M28.9152299,0 L5.35467221,0 C2.39889314,0.00343678161 0.00348053693,2.36873563 0,5.28735633 L0,58.1609196 C0.00348053693,61.0795402 2.39889314,63.444839 5.35467221,63.4482758 L28.9152299,63.4482758 C31.8710089,63.444839 34.2664215,61.0795402 34.2699021,58.1609196 L34.2699021,5.28735633 C34.2664215,2.36873563 31.8710089,0.00343678161 28.9152299,0 Z M12.8790576,61.3333334 L5.35467221,61.3333334 C3.5802677,61.3333334 2.14186888,59.9130172 2.14186888,58.1609196 L2.14186888,54.9885057 L12.8790576,54.9885057 C11.4144209,56.8562643 11.4144209,59.4655747 12.8790576,61.3333334 Z M17.134951,61.3333334 C15.3605466,61.3333334 13.9221477,59.9130172 13.9221477,58.1609196 C13.9221477,56.4088219 15.3605466,54.9885057 17.134951,54.9885057 C18.9093555,54.9885057 20.3477544,56.4088219 20.3477544,58.1609196 C20.3477544,59.9130172 18.9093555,61.3333334 17.134951,61.3333334 Z M32.1280333,58.1609196 C32.1280333,59.9130172 30.6896344,61.3333334 28.9152299,61.3333334 L21.3908445,61.3333334 C22.8554812,59.4655747 22.8554812,56.8562643 21.3908445,54.9885057 L32.1280333,54.9885057 L32.1280333,58.1609196 Z M32.1280333,52.8735633 L2.14186888,52.8735633 L2.14186888,11.6321839 L32.1280333,11.6321839 L32.1280333,52.8735633 Z M32.1280333,9.51724138 L2.14186888,9.51724138 L2.14186888,5.28735633 C2.14186888,3.53525862 3.5802677,2.11494253 5.35467221,2.11494253 L28.9152299,2.11494253 C30.6896344,2.11494253 32.1280333,3.53525862 32.1280333,5.28735633 L32.1280333,9.51724138 Z" id="Shape"></path>
                    <rect id="Rectangle-path" x="9.63840996" y="5.28735633" width="10.7093444" height="2.11494253"></rect>
                    <path d="M12.8512133,21.1494253 L8.56747552,21.1494253 C6.79307102,21.1494253 5.35467221,22.5697414 5.35467221,24.3218391 L5.35467221,28.5517242 C5.35467221,30.3038218 6.79307102,31.724138 8.56747552,31.724138 L12.8512133,31.724138 C14.6256177,31.724138 16.0640166,30.3038218 16.0640166,28.5517242 L16.0640166,24.3218391 C16.0640166,22.5697414 14.6256177,21.1494253 12.8512133,21.1494253 Z M13.9221477,28.5517242 C13.9221477,29.1357126 13.4426368,29.6091954 12.8512133,29.6091954 L8.56747552,29.6091954 C7.97605197,29.6091954 7.49654109,29.1357126 7.49654109,28.5517242 L7.49654109,24.3218391 C7.49654109,23.7378506 7.97605197,23.2643679 8.56747552,23.2643679 L12.8512133,23.2643679 C13.4426368,23.2643679 13.9221477,23.7378506 13.9221477,24.3218391 L13.9221477,28.5517242 Z" id="Shape"></path>
                    <path d="M25.7024266,21.1494253 L21.4186888,21.1494253 C19.6442843,21.1494253 18.2058854,22.5697414 18.2058854,24.3218391 L18.2058854,28.5517242 C18.2058854,30.3038218 19.6442843,31.724138 21.4186888,31.724138 L25.7024266,31.724138 C27.476831,31.724138 28.9152299,30.3038218 28.9152299,28.5517242 L28.9152299,24.3218391 C28.9152299,22.5697414 27.476831,21.1494253 25.7024266,21.1494253 Z M26.773361,28.5517242 C26.773361,29.1357126 26.2938501,29.6091954 25.7024266,29.6091954 L21.4186888,29.6091954 C20.8272653,29.6091954 20.3477544,29.1357126 20.3477544,28.5517242 L20.3477544,24.3218391 C20.3477544,23.7378506 20.8272653,23.2643679 21.4186888,23.2643679 L25.7024266,23.2643679 C26.2938501,23.2643679 26.773361,23.7378506 26.773361,24.3218391 L26.773361,28.5517242 Z" id="Shape"></path>
                    <path d="M12.8512133,33.8390804 L8.56747552,33.8390804 C6.79307102,33.8390804 5.35467221,35.2593966 5.35467221,37.0114943 L5.35467221,41.2413793 C5.35467221,42.993477 6.79307102,44.4137932 8.56747552,44.4137932 L12.8512133,44.4137932 C14.6256177,44.4137932 16.0640166,42.993477 16.0640166,41.2413793 L16.0640166,37.0114943 C16.0640166,35.2593966 14.6256177,33.8390804 12.8512133,33.8390804 Z M13.9221477,41.2413793 C13.9221477,41.8253678 13.4426368,42.2988506 12.8512133,42.2988506 L8.56747552,42.2988506 C7.97605197,42.2988506 7.49654109,41.8253678 7.49654109,41.2413793 L7.49654109,37.0114943 C7.49654109,36.4275058 7.97605197,35.954023 8.56747552,35.954023 L12.8512133,35.954023 C13.4426368,35.954023 13.9221477,36.4275058 13.9221477,37.0114943 L13.9221477,41.2413793 Z" id="Shape"></path>
                    <path d="M25.7024266,33.8390804 L21.4186888,33.8390804 C19.6442843,33.8390804 18.2058854,35.2593966 18.2058854,37.0114943 L18.2058854,41.2413793 C18.2058854,42.993477 19.6442843,44.4137932 21.4186888,44.4137932 L25.7024266,44.4137932 C27.476831,44.4137932 28.9152299,42.993477 28.9152299,41.2413793 L28.9152299,37.0114943 C28.9152299,35.2593966 27.476831,33.8390804 25.7024266,33.8390804 Z M26.773361,41.2413793 C26.773361,41.8253678 26.2938501,42.2988506 25.7024266,42.2988506 L21.4186888,42.2988506 C20.8272653,42.2988506 20.3477544,41.8253678 20.3477544,41.2413793 L20.3477544,37.0114943 C20.3477544,36.4275058 20.8272653,35.954023 21.4186888,35.954023 L25.7024266,35.954023 C26.2938501,35.954023 26.773361,36.4275058 26.773361,37.0114943 L26.773361,41.2413793 Z" id="Shape"></path>
                    <path d="M8.56747552,13.7471264 L5.35467221,13.7471264 C4.76324866,13.7471264 4.28373776,14.2206092 4.28373776,14.8045978 L4.28373776,17.9770115 C4.28373776,18.5610001 4.76324866,19.0344828 5.35467221,19.0344828 C5.94609575,19.0344828 6.42560664,18.5610001 6.42560664,17.9770115 L6.42560664,15.862069 L8.56747552,15.862069 C9.15889906,15.862069 9.63840996,15.3885862 9.63840996,14.8045978 C9.63840996,14.2206092 9.15889906,13.7471264 8.56747552,13.7471264 Z" id="Shape"></path>
                    <path d="M14.9930822,13.7471264 L12.8512133,13.7471264 C12.2597897,13.7471264 11.7802788,14.2206092 11.7802788,14.8045978 C11.7802788,15.3885862 12.2597897,15.862069 12.8512133,15.862069 L14.9930822,15.862069 C15.5845057,15.862069 16.0640166,15.3885862 16.0640166,14.8045978 C16.0640166,14.2206092 15.5845057,13.7471264 14.9930822,13.7471264 Z" id="Shape"></path>
                    <rect id="Rectangle-path" x="22.4896232" y="5.28735633" width="2.14186888" height="2.11494253"></rect>
                </g>
            </g>
        </g>
    </g>
</svg>