<?xml version="1.0" encoding="UTF-8"?>
<svg width="100px" height="100px" viewBox="0 0 100 100" version="1.1" xmlns="http://www.w3.org/2000/svg" xmlns:xlink="http://www.w3.org/1999/xlink">
    <!-- Generator: Sketch 43.1 (39012) - http://www.bohemiancoding.com/sketch -->
    <title>social-media</title>
    <desc>Created with Sketch.</desc>
    <defs></defs>
    <g id="Page-1" stroke="none" stroke-width="1" fill="none" fill-rule="evenodd">
        <g id="о-нас" transform="translate(-512.000000, -2494.000000)">
            <g id="social-media" transform="translate(512.000000, 2494.000000)">
                <circle id="Oval-3" fill="#D7263D" cx="50" cy="50" r="50"></circle>
                <g transform="translate(23.000000, 23.000000)" fill-rule="nonzero" fill="#FCFCFC">
                    <rect id="Rectangle-path" x="18.3333333" y="4.58333333" width="18.3333333" height="1.83333333"></rect>
                    <path d="M45.375,34.375 C45.375,32.6060625 43.9354896,31.1666667 42.1666667,31.1666667 L40.3333333,31.1666667 L40.3333333,18.3333333 L38.5,18.3333333 L38.5,31.1666667 L36.2083333,31.1666667 C34.4393958,31.1666667 33,32.6061771 33,34.375 C33,35.2731042 33.3733125,36.0836667 33.9700625,36.6666667 C33.3733125,37.2496667 33,38.0602292 33,38.9583333 C33,39.5762812 33.1839062,40.1488542 33.4880104,40.6390417 C32.3914479,41.1497396 31.625,42.2546667 31.625,43.5416667 C31.625,44.0356354 31.7465729,44.4983229 31.9468646,44.9166667 L24.75,44.9166667 C24.75,42.1138437 23.3454375,39.6333437 21.2033021,38.1419271 C23.2747396,37.3523333 24.75,35.3454062 24.75,33 C24.75,32.4937708 24.3400208,32.0833333 23.8333333,32.0833333 L16.5,32.0833333 L16.5,22.9166667 L14.6666667,22.9166667 L14.6666667,32.0833333 C13.1502708,32.0833333 11.9166667,33.3169375 11.9166667,34.8333333 L11.9166667,55 L13.75,55 L13.75,34.8333333 C13.75,34.3280208 14.1608958,33.9166667 14.6666667,33.9166667 L22.80025,33.9166667 C22.3929062,35.4961979 20.9552292,36.6666667 19.25,36.6666667 L16.5,36.6666667 C15.9933125,36.6666667 15.5833333,37.0771042 15.5833333,37.5833333 C15.5833333,38.0895625 15.9933125,38.5 16.5,38.5 C20.0377604,38.5 22.9166667,41.3784479 22.9166667,44.9166667 L22.9166667,45.8333333 C22.9166667,46.3395625 23.3266458,46.75 23.8333333,46.75 L29.1968646,46.75 C28.9965729,47.1683437 28.875,47.6310312 28.875,48.125 C28.875,49.8939375 30.3145104,51.3333333 32.0833333,51.3333333 L32.0833333,55 L33.9166667,55 L33.9166667,51.3333333 L37.5833333,51.3333333 L38.0416667,51.3333333 C39.8106042,51.3333333 41.25,49.8938229 41.25,48.125 C41.25,47.6257604 41.1254479,47.1587187 40.9210312,46.7369375 C42.6288958,46.6672708 44,45.2662604 44,43.5416667 C44,42.9237187 43.8160937,42.3511458 43.5119896,41.8609583 C44.6085521,41.3502604 45.375,40.2453333 45.375,38.9583333 C45.375,38.0602292 45.0016875,37.2496667 44.4049375,36.6666667 C45.0016875,36.0836667 45.375,35.2731042 45.375,34.375 Z M38.0416667,49.5 L37.5833333,49.5 L33,49.5 L32.0833333,49.5 C31.3251354,49.5 30.7083333,48.8831979 30.7083333,48.125 C30.7083333,47.3668021 31.3251354,46.75 32.0833333,46.75 L34.8333333,46.75 L38.0416667,46.75 C38.7998646,46.75 39.4166667,47.3668021 39.4166667,48.125 C39.4166667,48.8831979 38.7998646,49.5 38.0416667,49.5 Z M40.7916667,44.9166667 L38.0416667,44.9166667 L34.8333333,44.9166667 C34.0751354,44.9166667 33.4583333,44.2998646 33.4583333,43.5416667 C33.4583333,42.7834687 34.0751354,42.1666667 34.8333333,42.1666667 L36.2083333,42.1666667 L40.7916667,42.1666667 C41.5498646,42.1666667 42.1666667,42.7834687 42.1666667,43.5416667 C42.1666667,44.2998646 41.5498646,44.9166667 40.7916667,44.9166667 Z M42.1666667,40.3333333 L40.7916667,40.3333333 L36.2083333,40.3333333 C35.4501354,40.3333333 34.8333333,39.7165312 34.8333333,38.9583333 C34.8333333,38.2001354 35.4501354,37.5833333 36.2083333,37.5833333 L42.1666667,37.5833333 C42.9248646,37.5833333 43.5416667,38.2001354 43.5416667,38.9583333 C43.5416667,39.7165312 42.9248646,40.3333333 42.1666667,40.3333333 Z M42.1666667,35.75 L36.2083333,35.75 C35.4501354,35.75 34.8333333,35.1331979 34.8333333,34.375 C34.8333333,33.6168021 35.4501354,33 36.2083333,33 L42.1666667,33 C42.9248646,33 43.5416667,33.6168021 43.5416667,34.375 C43.5416667,35.1331979 42.9248646,35.75 42.1666667,35.75 Z" id="Shape"></path>
                    <path d="M13.7473646,11.6677917 C13.7285729,11.4045938 13.5978333,11.1620208 13.3874583,11.0026354 L12.4332083,10.2792708 C12.2049583,9.12369792 11.1906667,8.25 9.9776875,8.25 C8.60898958,8.25 7.49260417,9.36271875 7.47472917,10.7372604 C6.74242708,10.6092708 6.0424375,10.3281979 5.41578125,9.90607292 L5.09620833,9.6903125 C4.81605208,9.50102083 4.45259375,9.48039583 4.15272917,9.64058333 C3.85378125,9.79951042 3.66666667,10.1110625 3.66666667,10.4498854 L3.66666667,11.2018958 C3.66666667,12.3065937 3.99964583,13.3601875 4.61736458,14.2451146 L3.93169792,14.9389167 C3.67125,15.2016562 3.59505208,15.5951354 3.73747917,15.9365937 C3.87967708,16.2775937 4.21357292,16.5 4.58333333,16.5 L9.02527083,16.5 C10.7968437,16.5 12.2613333,15.1496354 12.4583021,13.4165625 L13.4850833,12.37775 C13.6703646,12.1901771 13.7661562,11.9314479 13.7473646,11.6677917 Z M10.9122292,12.3723646 C10.7421875,12.5437813 10.6471979,12.7756979 10.6471979,13.0168958 C10.6471979,13.9264583 9.91936458,14.6666667 9.02515625,14.6666667 L6.69327083,14.6666667 C6.83833333,14.3327708 6.77565625,13.9298958 6.5044375,13.6555833 C6.07658333,13.2223438 5.77041667,12.6771563 5.6155,12.0894583 C6.49011458,12.4583021 7.43004167,12.6498854 8.39151042,12.6498854 C8.89819792,12.6498854 9.30817708,12.2394479 9.30817708,11.7332188 L9.30817708,10.7708333 C9.30817708,10.3916771 9.60895833,10.0833333 9.97780208,10.0833333 C10.3466458,10.0833333 10.6474271,10.3916771 10.6474271,10.7708333 C10.6474271,11.05775 10.7817187,11.3280521 11.0099687,11.5013021 L11.446875,11.8321042 L10.9122292,12.3723646 Z" id="Shape"></path>
                    <path d="M30.25,15.5833333 L30.25,13.75 L27.5,13.75 C26.9933125,13.75 26.5833333,14.1604375 26.5833333,14.6666667 L26.5833333,17.4166667 L24.75,17.4166667 L24.75,19.25 L26.5833333,19.25 L26.5833333,22.9166667 L28.4166667,22.9166667 L28.4166667,19.25 L30.25,19.25 L30.25,17.4166667 L28.4166667,17.4166667 L28.4166667,15.5833333 L30.25,15.5833333 Z" id="Shape"></path>
                    <path d="M33,10.0833333 L22,10.0833333 C20.4836042,10.0833333 19.25,11.3169375 19.25,12.8333333 L19.25,23.8333333 C19.25,25.3497292 20.4836042,26.5833333 22,26.5833333 L33,26.5833333 C34.5163958,26.5833333 35.75,25.3497292 35.75,23.8333333 L35.75,12.8333333 C35.75,11.3169375 34.5163958,10.0833333 33,10.0833333 Z M33.9166667,23.8333333 C33.9166667,24.3386458 33.5057708,24.75 33,24.75 L22,24.75 C21.4942292,24.75 21.0833333,24.3386458 21.0833333,23.8333333 L21.0833333,12.8333333 C21.0833333,12.3280208 21.4942292,11.9166667 22,11.9166667 L33,11.9166667 C33.5057708,11.9166667 33.9166667,12.3280208 33.9166667,12.8333333 L33.9166667,23.8333333 Z" id="Shape"></path>
                    <path d="M13.75,4.58333333 L2.75,4.58333333 C1.23360417,4.58333333 0,5.8169375 0,7.33333333 L0,18.3333333 C0,19.8497292 1.23360417,21.0833333 2.75,21.0833333 L13.75,21.0833333 C15.2663958,21.0833333 16.5,19.8497292 16.5,18.3333333 L16.5,7.33333333 C16.5,5.8169375 15.2663958,4.58333333 13.75,4.58333333 Z M14.6666667,18.3333333 C14.6666667,18.8386458 14.2557708,19.25 13.75,19.25 L2.75,19.25 C2.24422917,19.25 1.83333333,18.8386458 1.83333333,18.3333333 L1.83333333,7.33333333 C1.83333333,6.82802083 2.24422917,6.41666667 2.75,6.41666667 L13.75,6.41666667 C14.2557708,6.41666667 14.6666667,6.82802083 14.6666667,7.33333333 L14.6666667,18.3333333 Z" id="Shape"></path>
                    <path d="M52.25,0 L41.25,0 C39.7336042,0 38.5,1.23360417 38.5,2.75 L38.5,13.75 C38.5,15.2663958 39.7336042,16.5 41.25,16.5 L52.25,16.5 C53.7663958,16.5 55,15.2663958 55,13.75 L55,2.75 C55,1.23360417 53.7663958,0 52.25,0 Z M53.1666667,13.75 C53.1666667,14.2553125 52.7557708,14.6666667 52.25,14.6666667 L41.25,14.6666667 C40.7442292,14.6666667 40.3333333,14.2553125 40.3333333,13.75 L40.3333333,9.16666667 L42.2593646,9.16666667 C42.6852708,11.2559792 44.5368229,12.8333333 46.75,12.8333333 C48.9631771,12.8333333 50.8147292,11.2559792 51.2406354,9.16666667 L53.1666667,9.16666667 L53.1666667,13.75 Z M44,8.25 C44,6.73360417 45.2336042,5.5 46.75,5.5 C48.2663958,5.5 49.5,6.73360417 49.5,8.25 C49.5,9.76639583 48.2663958,11 46.75,11 C45.2336042,11 44,9.76639583 44,8.25 Z M53.1666667,7.33333333 L51.2406354,7.33333333 C50.8147292,5.24402083 48.9631771,3.66666667 46.75,3.66666667 C44.5368229,3.66666667 42.6852708,5.24402083 42.2593646,7.33333333 L40.3333333,7.33333333 L40.3333333,2.75 C40.3333333,2.2446875 40.7442292,1.83333333 41.25,1.83333333 L52.25,1.83333333 C52.7557708,1.83333333 53.1666667,2.2446875 53.1666667,2.75 L53.1666667,7.33333333 Z" id="Shape"></path>
                    <rect id="Rectangle-path" x="26.5833333" y="37.5833333" width="1.83333333" height="1.83333333"></rect>
                </g>
            </g>
        </g>
    </g>
</svg>