<?xml version="1.0" encoding="UTF-8"?>
<svg width="100px" height="100px" viewBox="0 0 100 100" version="1.1" xmlns="http://www.w3.org/2000/svg" xmlns:xlink="http://www.w3.org/1999/xlink">
    <!-- Generator: Sketch 43.1 (39012) - http://www.bohemiancoding.com/sketch -->
    <title>visual-design</title>
    <desc>Created with Sketch.</desc>
    <defs></defs>
    <g id="Page-1" stroke="none" stroke-width="1" fill="none" fill-rule="evenodd">
        <g id="о-нас" transform="translate(-494.000000, -2210.000000)">
            <g id="visual-design" transform="translate(494.000000, 2210.000000)">
                <circle id="Oval-3" fill="#D7263D" cx="50" cy="50" r="50"></circle>
                <g transform="translate(20.000000, 21.000000)" id="Shape" fill-rule="nonzero" fill="#FCFCFC">
                    <path d="M18.9854677,43.7929466 C18.8472464,43.9996399 18.6330856,44.061648 18.4320366,44.061648 C18.2309876,44.061648 18.0299388,43.9996399 17.8917176,43.7929466 L16.4455858,41.5593095 L16.4455858,46.0881422 C16.4455858,46.3676278 16.0309223,46.5123131 15.6288244,46.5123131 C15.2136145,46.5123131 14.8115166,46.3676278 14.8115166,46.0881422 L14.8115166,39.6253778 C14.8115166,39.1293137 15.2136145,38.9536242 15.6288244,38.9536242 C16.2194056,38.9536242 16.4838287,39.0569709 16.8984922,39.6667166 L18.4451485,41.983031 L19.9912588,39.6667166 C20.4064685,39.0569709 20.6829108,38.9536242 21.2740385,38.9536242 C21.688702,38.9536242 22.0907999,39.1293137 22.0907999,39.6253778 L22.0907999,46.0881422 C22.0907999,46.3676278 21.6761364,46.5123131 21.2740385,46.5123131 C20.8588286,46.5123131 20.4567307,46.3676278 20.4567307,46.0881422 L20.4567307,41.6419869 L18.9854677,43.7929466 Z"></path>
                    <path d="M26.6411713,42.2000591 L28.552229,42.2000591 C28.8789336,42.2000591 29.0674169,42.4588752 29.0674169,42.7379113 C29.0674169,42.9756088 28.9040646,43.2550942 28.552229,43.2550942 L26.6411713,43.2550942 L26.6411713,45.3332619 L30.1988636,45.3332619 C30.5261146,45.3332619 30.714598,45.6122981 30.714598,45.9331223 C30.714598,46.2121584 30.5512456,46.5123131 30.1988636,46.5123131 L25.7233392,46.5123131 C25.358938,46.5123131 25.0065559,46.3671785 25.0065559,46.0881422 L25.0065559,39.3773458 C25.0065559,39.0983096 25.3583916,38.9531749 25.7233392,38.9531749 L30.1988636,38.9531749 C30.5512456,38.9531749 30.714598,39.2533297 30.714598,39.5323658 C30.714598,39.8531901 30.5261146,40.1322261 30.1988636,40.1322261 L26.6411713,40.1322261 L26.6411713,42.2000591 Z"></path>
                    <path d="M37.415319,46.0881422 L34.7120848,41.9313577 L34.7120848,46.0881422 C34.7120848,46.3676278 34.2974213,46.5123131 33.8947771,46.5123131 C33.4801135,46.5123131 33.0774694,46.3676278 33.0774694,46.0881422 L33.0774694,39.3773458 C33.0774694,39.087975 33.4801135,38.9536242 33.8947771,38.9536242 C34.4859048,38.9536242 34.7246503,39.0569709 35.1147289,39.6667166 L37.5409747,43.5237957 L37.5409747,39.3670111 C37.5409747,39.0776403 37.9430726,38.9531749 38.3582824,38.9531749 C38.7603803,38.9531749 39.1750436,39.0771909 39.1750436,39.3670111 L39.1750436,46.0881422 C39.1750436,46.3671785 38.7603803,46.5123131 38.3582824,46.5123131 C37.9682036,46.5123131 37.6289335,46.4089665 37.415319,46.0881422 Z"></path>
                    <path d="M46.454327,39.3670111 C46.454327,39.0776403 46.8564248,38.9536242 47.2710882,38.9536242 C47.6737326,38.9536242 48.088396,39.0776403 48.088396,39.3670111 L48.088396,44.2063335 C48.088396,45.9331223 46.7559004,46.5743213 45.0710226,46.5743213 C43.3735796,46.5743213 42.0536495,45.9331223 42.0536495,44.2063335 L42.0536495,39.3670111 C42.0536495,39.0776403 42.4557474,38.9536242 42.8709572,38.9536242 C43.2730552,38.9536242 43.6877186,39.0776403 43.6877186,39.3670111 L43.6877186,44.2063335 C43.6877186,45.0128871 44.2034528,45.3957193 45.0710226,45.3957193 C45.9385927,45.3957193 46.4537806,45.0128871 46.4537806,44.2063335 L46.4537806,39.3670111 L46.454327,39.3670111 Z"></path>
                    <path d="M49.6864073,48.5594769 L43.7101181,48.5594769 C43.1233609,48.5594769 42.6480551,48.9503971 42.6480551,49.4325319 C42.6480551,49.9151162 43.1233609,50.305587 43.7101181,50.305587 L49.6864073,50.305587 C50.2731643,50.305587 50.7479239,49.9151162 50.7479239,49.4325319 C50.7479239,48.9503971 50.2731643,48.5594769 49.6864073,48.5594769 L49.6864073,48.5594769 Z"></path>
                    <path d="M38.7702142,48.5594769 L14.5826048,48.5594769 C13.9963943,48.5594769 13.5210882,48.9503971 13.5210882,49.4325319 C13.5210882,49.9151162 13.9963943,50.305587 14.5826048,50.305587 L38.7702142,50.305587 C39.3569712,50.305587 39.8317308,49.9151162 39.8317308,49.4325319 C39.8317308,48.9503971 39.3569712,48.5594769 38.7702142,48.5594769 Z"></path>
                    <path d="M49.6864073,35.2268517 L14.5826048,35.2268517 C13.9963943,35.2268517 13.5210882,35.6177719 13.5210882,36.0999068 C13.5210882,36.5820418 13.9963943,36.9729619 14.5826048,36.9729619 L49.6864073,36.9729619 C50.2731643,36.9729619 50.7479239,36.5820418 50.7479239,36.0999068 C50.7479239,35.6177719 50.2731643,35.2268517 49.6864073,35.2268517 Z"></path>
                    <path d="M49.095826,24.4010584 L48.0654502,24.4010584 C47.6677229,18.3849316 42.3208042,13.4341744 35.3228803,12.2623126 L35.5277536,10.6514518 C35.5949519,10.1257316 35.3862544,9.59911268 34.9562938,9.2068444 C34.526333,8.81412694 33.911167,8.58901085 33.2686844,8.58901085 L31.0008742,8.58901085 C30.3578453,8.58901085 29.7432254,8.81457624 29.3127186,9.2068444 C28.8827579,9.59956198 28.6746067,10.1261809 28.741805,10.6514518 L28.9466783,12.2623126 C21.9487544,13.4341744 16.6018357,18.3844822 16.2041084,24.4006092 L15.1737326,24.4006092 C14.2624562,24.4006092 13.5210882,25.0103548 13.5210882,25.7598431 L13.5210882,27.5616707 C13.5210882,28.311159 14.2624562,28.9209046 15.1737326,28.9209046 L49.0952797,28.9209046 C50.006556,28.9209046 50.7479239,28.311159 50.7479239,27.5616707 L50.7479239,25.7598431 C50.7479239,25.0108041 50.0071022,24.4010584 49.095826,24.4010584 L49.095826,24.4010584 Z M30.8905158,10.375561 C30.9200174,10.3490504 30.9566215,10.3355703 31.0008742,10.3355703 L33.2686844,10.3355703 C33.3123907,10.3355703 33.3495412,10.3490504 33.3790428,10.375561 C33.4085446,10.4025211 33.4211102,10.4344238 33.4161931,10.469921 L33.2178758,12.0300071 C32.8600307,12.0102365 32.4989074,11.9990031 32.1350525,11.9990031 C31.7706512,11.9990031 31.4100743,12.0102365 31.0522291,12.0300071 L30.8533654,10.469921 C30.8489947,10.4344238 30.8615603,10.4025211 30.8905158,10.375561 Z M48.6248908,27.1747946 L15.6446678,27.1747946 L15.6446678,26.1471687 L20.1185533,26.1471687 C20.7053104,26.1471687 21.1806162,25.7562484 21.1806162,25.2741136 C21.1806162,24.7919787 20.7053104,24.4010584 20.1185533,24.4010584 L18.3315121,24.4010584 C18.784965,18.4626663 24.802229,13.7455627 32.1345061,13.7455627 C39.4673296,13.7455627 45.4845936,18.4626663 45.9380462,24.4010584 L25.0584572,24.4010584 C24.4717001,24.4010584 23.9969406,24.7919787 23.9969406,25.2741136 C23.9969406,25.7562484 24.4717001,26.1471687 25.0584572,26.1471687 L48.6248908,26.1471687 L48.6248908,27.1747946 Z"></path>
                    <path d="M57.2705419,6.53866374e-15 L6.99901664,6.53866374e-15 C5.50863203,6.53866374e-15 4.29578238,0.997520483 4.29578238,2.22330241 L4.29578238,3.80046312 L3.30528839,3.80046312 C1.48273595,3.80046312 0,5.02040374 0,6.51938046 C0,8.01835719 1.48273595,9.23829781 3.30528839,9.23829781 L4.29578238,9.23829781 L4.29578238,12.9718102 L3.30528839,12.9718102 C1.48273595,12.9718102 0,14.1913015 0,15.6907275 C0,17.1897043 1.48273595,18.4091955 3.30528839,18.4091955 L4.29578238,18.4091955 L4.29578238,22.1431574 L3.30528839,22.1431574 C1.48273595,22.1431574 0,23.3626485 0,24.8620748 C0,26.3610514 1.48273595,27.5805426 3.30528839,27.5805426 L4.29578238,27.5805426 L4.29578238,31.3145045 L3.30528839,31.3145045 C1.48273595,31.3145045 0,32.5339958 0,34.0329724 C0,35.5323986 1.48273595,36.7518898 3.30528839,36.7518898 L4.29578238,36.7518898 L4.29578238,40.4858517 L3.30528839,40.4858517 C1.48273595,40.4858517 0,41.7053429 0,43.2043196 C0,44.7037456 1.48273595,45.923237 3.30528839,45.923237 L4.29578238,45.923237 L4.29578238,49.6571986 L3.30528839,49.6571986 C1.48273595,49.6571986 0,50.87669 0,52.3756668 C0,53.8746434 1.48273595,55.0945841 3.30528839,55.0945841 L4.29578238,55.0945841 L4.29578238,56.6717448 C4.29578238,57.8975267 5.50863203,58.8950472 6.99901664,58.8950472 L57.2705419,58.8950472 C58.7609266,58.8950472 59.9743225,57.8975267 59.9743225,56.6717448 L59.9743225,2.22330241 C59.9743225,0.997520483 58.7609266,0 57.2705419,0 L57.2705419,6.53866374e-15 Z M4.29523608,7.49218757 L3.30528839,7.49218757 C2.65351832,7.49218757 2.12303329,7.05588477 2.12303329,6.51938046 C2.12303329,5.98332557 2.65351832,5.54702266 3.30528839,5.54702266 L4.29523608,5.54702266 L4.29523608,7.49218757 Z M4.29523608,16.6630854 L3.30528839,16.6630854 C2.65351832,16.6630854 2.12303329,16.2267825 2.12303329,15.6907275 C2.12303329,15.1542234 2.65351832,14.7183697 3.30528839,14.7183697 L4.29523608,14.7183697 L4.29523608,16.6630854 Z M4.29523608,25.8344326 L3.30528839,25.8344326 C2.65351832,25.8344326 2.12303329,25.3981296 2.12303329,24.8620748 C2.12303329,24.3255704 2.65351832,23.8892676 3.30528839,23.8892676 L4.29523608,23.8892676 L4.29523608,25.8344326 Z M4.29523608,35.0057796 L3.30528839,35.0057796 C2.65351832,35.0057796 2.12303329,34.5694767 2.12303329,34.0329724 C2.12303329,33.4969176 2.65351832,33.0606146 3.30528839,33.0606146 L4.29523608,33.0606146 L4.29523608,35.0057796 Z M4.29523608,44.1766774 L3.30528839,44.1766774 C2.65351832,44.1766774 2.12303329,43.7408237 2.12303329,43.2043196 C2.12303329,42.6682647 2.65351832,42.2319618 3.30528839,42.2319618 L4.29523608,42.2319618 L4.29523608,44.1766774 Z M4.29523608,53.3480246 L3.30528839,53.3480246 C2.65351832,53.3480246 2.12303329,52.9117216 2.12303329,52.3756668 C2.12303329,51.8391624 2.65351832,51.4033089 3.30528839,51.4033089 L4.29523608,51.4033089 L4.29523608,53.3480246 Z M57.8507429,56.6712955 C57.8507429,56.9346048 57.5906906,57.1489369 57.2705419,57.1489369 L6.99901664,57.1489369 C6.67886797,57.1489369 6.41881553,56.9346048 6.41881553,56.6712955 L6.41881553,2.22330241 C6.41881553,1.96044231 6.67886797,1.74611024 6.99901664,1.74611024 L57.2705419,1.74611024 C57.5906906,1.74611024 57.8507429,1.96044231 57.8507429,2.22330241 L57.8507429,56.6712955 Z"></path>
                </g>
            </g>
        </g>
    </g>
</svg>