<?xml version="1.0" encoding="UTF-8"?>
<svg width="100px" height="100px" viewBox="0 0 100 100" version="1.1" xmlns="http://www.w3.org/2000/svg" xmlns:xlink="http://www.w3.org/1999/xlink">
    <!-- Generator: Sketch 43.1 (39012) - http://www.bohemiancoding.com/sketch -->
    <title>web-design</title>
    <desc>Created with Sketch.</desc>
    <defs></defs>
    <g id="Page-1" stroke="none" stroke-width="1" fill="none" fill-rule="evenodd">
        <g id="о-нас" transform="translate(-945.000000, -2204.000000)">
            <g id="web-design" transform="translate(945.000000, 2204.000000)">
                <circle id="Oval-3" fill="#D7263D" cx="50" cy="50" r="50"></circle>
                <g id="Web-design" transform="translate(17.000000, 24.000000)" fill-rule="nonzero" fill="#FCFCFC">
                    <path d="M50.6088665,47.8423173 L43.4238438,47.8423173 C43.1644987,47.8423173 42.9527002,47.6285475 42.9527002,47.3664148 L42.9527002,45.5998321 C42.9527002,45.3380352 42.7407355,45.1239295 42.4815567,45.1239295 L32.4277783,45.1239295 C32.1684333,45.1239295 31.9564685,45.3380352 31.9564685,45.5998321 L31.9564685,47.3664148 C31.9564685,47.6285475 31.7445038,47.8423173 31.4851586,47.8423173 L26.0836323,47.8423173 C25.8242871,47.8423173 25.6123225,48.0564232 25.6123225,48.31822 L25.6123225,50.3618808 C25.6123225,50.6236776 25.8242871,50.8377833 26.0836323,50.8377833 L50.608534,50.8377833 C50.8677129,50.8377833 51.0796775,50.6236776 51.0796775,50.3618808 L51.0796775,48.31822 C51.08001,48.0569269 50.8680454,47.8423173 50.6088665,47.8423173 Z" id="Shape"></path>
                    <g id="Group">
                        <path d="M62.6803828,0.0617968095 L11.4098539,0.0617968095 C9.62602518,0.0617968095 8.17485643,1.52779177 8.17485643,3.32997481 L8.17485643,11.8540722 C8.17485643,12.9810243 8.09206548,13.1403862 8.84050881,13.1403862 L10.1239345,13.1403862 C10.7520151,13.1403862 10.6231738,12.9810243 10.6231738,11.8330814 L10.6231738,3.32997481 C10.6231738,2.89924433 10.983597,2.53518052 11.4098539,2.53518052 L62.6803828,2.53518052 C63.1064735,2.53518052 63.4668968,2.89924433 63.4668968,3.32997481 L63.4668968,35.2357683 L26.9142015,35.2357683 C26.9142015,35.2357683 25.6259546,35.2334173 25.6259546,36.9160369 L25.6259546,40.9069689 C25.6259546,42.5872376 26.9559295,42.5872376 26.9559295,42.5872376 L62.6803828,42.5872376 C64.4640454,42.5872376 65.9157129,41.1214105 65.9157129,39.3195633 L65.9157129,3.32997481 C65.9157129,1.52795969 64.4643779,0.0617968095 62.6803828,0.0617968095 Z M37.0452847,39.7655752 C36.2398187,39.7655752 35.5871335,39.1062972 35.5871335,38.2931989 C35.5871335,37.4801008 36.2398187,36.8204869 37.0452847,36.8204869 C37.8499194,36.8204869 38.5027707,37.4801008 38.5027707,38.2931989 C38.5027707,39.1062972 37.8499194,39.7655752 37.0452847,39.7655752 Z" id="Shape"></path>
                        <path d="M20.6353904,16.0592779 L2.08789421,16.0592779 C0.936302267,16.0592779 0,17.0052057 0,18.1684299 L0,48.9613769 C0,50.1244332 0.936302267,51.0706969 2.08789421,51.0706969 L20.6353904,51.0706969 C21.7863174,51.0706969 22.7232847,50.1244332 22.7232847,48.9613769 L22.7232847,18.1684299 C22.7232847,17.0052057 21.7863174,16.0592779 20.6353904,16.0592779 Z M9.07375315,18.2104115 L13.6493652,18.2104115 C13.8676474,18.2104115 14.0450327,18.3890848 14.0450327,18.6102435 C14.0450327,18.8308984 13.8678136,19.0097397 13.6493652,19.0097397 L9.07375315,19.0097397 C8.85513854,19.0097397 8.67825189,18.8308984 8.67825189,18.6102435 C8.67825189,18.3890848 8.85513854,18.2104115 9.07375315,18.2104115 Z M11.3338791,49.5892527 C10.7370529,49.5892527 10.2532746,49.1005877 10.2532746,48.4977329 C10.2532746,47.8948783 10.7370529,47.4062132 11.3338791,47.4062132 C11.9307053,47.4062132 12.4144836,47.8948783 12.4144836,48.4977329 C12.4144836,49.1005877 11.9307053,49.5892527 11.3338791,49.5892527 Z M20.9293149,46.3811923 C20.9293149,46.6626364 20.7062115,46.8928632 20.4338992,46.8928632 L2.28988414,46.8928632 C2.01740554,46.8928632 1.79446851,46.6626364 1.79446851,46.3811923 L1.79446851,20.7934509 C1.79446851,20.5120067 2.01757179,20.281948 2.28988414,20.281948 L20.4338992,20.281948 C20.7063779,20.281948 20.9293149,20.5121747 20.9293149,20.7934509 L20.9293149,46.3811923 Z" id="Shape"></path>
                    </g>
                </g>
            </g>
        </g>
    </g>
</svg>