<?xml version="1.0" encoding="UTF-8"?>
<svg width="100px" height="100px" viewBox="0 0 100 100" version="1.1" xmlns="http://www.w3.org/2000/svg" xmlns:xlink="http://www.w3.org/1999/xlink">
    <!-- Generator: Sketch 43.1 (39012) - http://www.bohemiancoding.com/sketch -->
    <title>Group 3</title>
    <desc>Created with Sketch.</desc>
    <defs></defs>
    <g id="Page-1" stroke="none" stroke-width="1" fill="none" fill-rule="evenodd">
        <g id="Desktop-HD-Copy" transform="translate(-242.000000, -242.000000)">
            <g id="Group-3" transform="translate(242.000000, 242.000000)">
                <circle id="Oval-2" fill="#FFFFFF" cx="50" cy="50" r="50"></circle>
                <g id="006-close-envelope" transform="translate(15.000000, 25.000000)" fill-rule="nonzero" fill="#D7263D">
                    <path d="M35,34.8359375 L26.34,27.2914687 L1.58,48.4169766 C2.48,49.2480625 3.695,49.765625 5.035,49.765625 L64.965,49.765625 C66.3,49.765625 67.51,49.2480625 68.405,48.4169766 L43.66,27.2914687 L35,34.8359375 Z" id="Shape"></path>
                    <path d="M68.42,1.34864844 C67.52,0.512585938 66.31,0 64.965,0 L5.035,0 C3.7,0 2.49,0.5175625 1.59,1.35860156 L35,29.859375 L68.42,1.34864844 Z" id="Shape"></path>
                    <polygon id="Shape" points="0 4.36942187 0 45.7147031 24.165 25.2759609"></polygon>
                    <polygon id="Shape" points="45.835 25.2759609 70 45.7147031 70 4.35449219"></polygon>
                </g>
            </g>
        </g>
    </g>
</svg>