<?xml version="1.0" encoding="UTF-8"?>
<svg width="100px" height="100px" viewBox="0 0 100 100" version="1.1" xmlns="http://www.w3.org/2000/svg" xmlns:xlink="http://www.w3.org/1999/xlink">
    <!-- Generator: Sketch 43.1 (39012) - http://www.bohemiancoding.com/sketch -->
    <title>Group 4</title>
    <desc>Created with Sketch.</desc>
    <defs></defs>
    <g id="Page-1" stroke="none" stroke-width="1" fill="none" fill-rule="evenodd">
        <g id="Desktop-HD-Copy" transform="translate(-375.000000, -242.000000)">
            <g id="Group-4" transform="translate(375.000000, 242.000000)">
                <circle id="Oval-2" fill="#FFFFFF" cx="50" cy="50" r="50"></circle>
                <g id="009-facebook-logo" transform="translate(15.000000, 15.000000)" fill-rule="nonzero" fill="#D7263D">
                    <path d="M70,11.6674444 C70,5.537 64.4653333,0 58.3333333,0 L11.6666667,0 C5.53466667,0 0,5.537 0,11.6674444 L0,58.3325556 C0,64.463 5.53466667,70 11.6674444,70 L35,70 L35,43.5555556 L26.4444444,43.5555556 L26.4444444,31.8888889 L35,31.8888889 L35,27.3435556 C35,19.5043333 40.8862222,12.4444444 48.125,12.4444444 L57.5555556,12.4444444 L57.5555556,24.1111111 L48.125,24.1111111 C47.0928889,24.1111111 45.8888889,25.3641111 45.8888889,27.2408889 L45.8888889,31.8888889 L57.5555556,31.8888889 L57.5555556,43.5555556 L45.8888889,43.5555556 L45.8888889,70 L58.3333333,70 C64.4653333,70 70,64.463 70,58.3325556 L70,11.6674444 Z" id="Facebook__x28_alt_x29_"></path>
                </g>
            </g>
        </g>
    </g>
</svg>