<?xml version="1.0" encoding="UTF-8"?>
<svg width="100px" height="100px" viewBox="0 0 100 100" version="1.1" xmlns="http://www.w3.org/2000/svg" xmlns:xlink="http://www.w3.org/1999/xlink">
    <!-- Generator: Sketch 43.1 (39012) - http://www.bohemiancoding.com/sketch -->
    <title>Group</title>
    <desc>Created with Sketch.</desc>
    <defs></defs>
    <g id="Page-1" stroke="none" stroke-width="1" fill="none" fill-rule="evenodd">
        <g id="Desktop-HD-Copy" transform="translate(-127.000000, -96.000000)">
            <g id="Group" transform="translate(127.000000, 96.000000)">
                <circle id="Oval-2" fill="#FFFFFF" cx="50" cy="50" r="50"></circle>
                <path d="M84.8585492,70.2404152 C85.0066494,71.3770069 84.6608808,72.3652422 83.8226943,73.2051211 L73.9820725,82.9882872 C73.5381347,83.4824048 72.9586701,83.9027682 72.243437,84.2482872 C71.5282038,84.5942907 70.8254231,84.8166436 70.135095,84.915346 C70.0857686,84.915346 69.9374266,84.9280623 69.6906736,84.9527682 C69.4444041,84.9773529 69.1237824,84.9899481 68.729171,84.9899481 C67.7917271,84.9899481 66.2748187,84.8293599 64.1784456,84.5080623 C62.0820725,84.1867647 59.5172193,83.3960554 56.483886,82.1362976 C53.4498273,80.8762976 50.0094301,78.9860554 46.1620898,76.4662976 C42.3147496,73.9466609 38.2205354,70.4875952 33.87981,66.089827 C30.4269603,62.6804152 27.5660276,59.4192388 25.2970121,56.3064187 C23.0279965,53.1933564 21.2029188,50.3151211 19.8217789,47.6715917 C18.4405181,45.0280623 17.4046632,42.6315917 16.7140933,40.4821799 C16.0235233,38.3327682 15.5549223,36.479827 15.3082902,34.9233564 C15.061658,33.3668858 14.9630052,32.1439446 15.0123316,31.2545329 C15.061658,30.3651211 15.0863212,29.8710035 15.0863212,29.7721799 C15.1849741,29.0804152 15.406943,28.3762976 15.752228,27.659827 C16.097513,26.9433564 16.5167876,26.3627682 17.0100518,25.9180623 L26.8506736,16.0604152 C27.5412435,15.3686505 28.3304663,15.0227682 29.218342,15.0227682 C29.8595855,15.0227682 30.4268394,15.2080623 30.9201036,15.5786505 C31.4133679,15.9492388 31.8326425,16.4062976 32.1779275,16.949827 L40.0948187,31.9957093 C40.5387565,32.7862976 40.6620725,33.6510035 40.4647668,34.589827 C40.2674611,35.5286505 39.8481865,36.3192388 39.206943,36.9615917 L35.5814508,40.5933564 C35.4827979,40.6921799 35.3964767,40.8527682 35.322487,41.0751211 C35.2484974,41.297474 35.2115026,41.4827682 35.2115026,41.6310035 C35.4088083,42.6686505 35.8527461,43.8545329 36.5433161,45.1886505 C37.1352332,46.3745329 38.047772,47.819827 39.2809326,49.5245329 C40.5140933,51.2292388 42.2651813,53.1932353 44.5341969,55.4167647 C46.753886,57.6899481 48.726943,59.4561765 50.4533679,60.7164187 C52.1794301,61.9759343 53.6227116,62.9027682 54.7818826,63.4957093 C55.9410535,64.0886505 56.8289292,64.4468858 57.4453886,64.5700519 L58.3700173,64.7554671 C58.4686701,64.7554671 58.6293437,64.7182872 58.8510708,64.6442907 C59.0730397,64.5700519 59.2333506,64.4837024 59.3321244,64.3847578 L63.5494128,60.0859343 C64.437772,59.2954671 65.4731434,58.900173 66.6570984,58.900173 C67.4958895,58.900173 68.1614335,59.0482872 68.6546978,59.3448789 L68.7285665,59.3448789 L83.0084456,67.7942907 C84.0446632,68.437128 84.6611226,69.2521799 84.8585492,70.2404152 Z" id="Shape" fill="#D7263D" fill-rule="nonzero"></path>
            </g>
        </g>
    </g>
</svg>