<?xml version="1.0" encoding="UTF-8"?>
<svg width="512px" height="360px" viewBox="0 0 512 360" version="1.1" xmlns="http://www.w3.org/2000/svg" xmlns:xlink="http://www.w3.org/1999/xlink">
    <!-- Generator: Sketch 43.1 (39012) - http://www.bohemiancoding.com/sketch -->
    <title>vision</title>
    <desc>Created with Sketch.</desc>
    <defs></defs>
    <g id="Page-1" stroke="none" stroke-width="1" fill="none" fill-rule="evenodd">
        <g id="vision" fill-rule="nonzero" fill="#083D77">
            <path d="M203.07,182.93 C199.17,179.02 192.83,179.02 188.93,182.93 C185.02,186.83 185.02,193.17 188.93,197.07 C192.83,200.98 199.17,200.98 203.07,197.07 C206.98,193.17 206.98,186.83 203.07,182.93 Z" id="Shape"></path>
            <path d="M256,200 C239.458,200 226,213.458 226,230 C226,246.542 239.458,260 256,260 C272.542,260 286,246.542 286,230 C286,213.458 272.542,200 256,200 Z M256,240 C250.486,240 246,235.514 246,230 C246,224.486 250.486,220 256,220 C261.514,220 266,224.486 266,230 C266,235.514 261.514,240 256,240 Z" id="Shape"></path>
            <path d="M256,150 C244.822,150 234.013,152.259 223.876,156.715 C218.82,158.938 216.523,164.838 218.745,169.894 C220.967,174.95 226.868,177.246 231.924,175.025 C239.509,171.691 247.61,170 256,170 C289.084,170 316,196.916 316,230 C316,263.084 289.084,290 256,290 C222.916,290 196,263.084 196,230 C196,229.658 195.999,229.324 196.007,228.982 C196.135,223.461 191.763,218.881 186.242,218.753 C180.712,218.615 176.141,222.996 176.013,228.518 C176.001,229.016 176,229.502 176,230 C176,274.112 211.888,310 256,310 C300.112,310 336,274.112 336,230 C336,185.888 300.112,150 256,150 Z" id="Shape"></path>
            <path d="M256,0 C250.477,0 246,4.477 246,10 L246,70 C246,75.523 250.477,80 256,80 C261.523,80 266,75.523 266,70 L266,10 C266,4.477 261.523,0 256,0 Z" id="Shape"></path>
            <path d="M144.281,74.138 L101.861,31.718 C97.956,27.813 91.624,27.813 87.718,31.718 C83.813,35.623 83.813,41.955 87.718,45.861 L130.138,88.281 C134.043,92.186 140.376,92.187 144.281,88.281 C148.186,84.376 148.186,78.044 144.281,74.138 Z" id="Shape"></path>
            <path d="M424.282,31.718 C420.377,27.813 414.045,27.813 410.139,31.718 L367.719,74.138 C363.814,78.043 363.814,84.375 367.719,88.281 C371.623,92.186 377.956,92.187 381.862,88.281 L424.282,45.861 C428.187,41.956 428.187,35.624 424.282,31.718 Z" id="Shape"></path>
            <path d="M509.495,231.71 C445.97,159.791 351.646,100 256,100 C160.341,100 66.018,159.806 2.505,231.71 C-1.151,235.85 -0.759,242.169 3.38,245.825 C7.52,249.481 13.84,249.089 17.495,244.95 C19.626,242.537 21.809,240.133 24.02,237.744 C73.435,312.408 163.013,360 256,360 C348.987,360 438.565,312.408 487.98,237.744 C490.191,240.134 492.374,242.538 494.505,244.95 C498.149,249.076 504.468,249.492 508.62,245.825 C512.759,242.169 513.151,235.849 509.495,231.71 Z M256,340 C168.085,340 83.529,294.321 38.311,223.02 C73.939,188.109 156.261,120 256,120 C355.74,120 438.061,188.109 473.689,223.019 C428.471,294.321 343.915,340 256,340 Z" id="Shape"></path>
        </g>
    </g>
</svg>