<?xml version="1.0" encoding="UTF-8"?>
<svg width="100px" height="100px" viewBox="0 0 100 100" version="1.1" xmlns="http://www.w3.org/2000/svg" xmlns:xlink="http://www.w3.org/1999/xlink">
    <!-- Generator: Sketch 43.1 (39012) - http://www.bohemiancoding.com/sketch -->
    <title>story</title>
    <desc>Created with Sketch.</desc>
    <defs></defs>
    <g id="Page-1" stroke="none" stroke-width="1" fill="none" fill-rule="evenodd">
        <g id="story">
            <g id="Group-8">
                <circle id="Oval-2" fill="#D7263D" cx="50" cy="50" r="50"></circle>
                <g id="story" transform="translate(12.000000, 19.000000)" fill-rule="nonzero" fill="#FCFCFC">
                    <path d="M53.0678449,11.394794 L29.5158128,11.394794 C28.9047667,11.394794 28.4094434,11.8901173 28.4094434,12.5011634 C28.4094434,13.1122096 28.9047667,13.6075328 29.5158128,13.6075328 L53.0676975,13.6075328 C53.6787436,13.6075328 54.1742143,13.1122096 54.1742143,12.5011634 C54.1742143,11.8899699 53.678891,11.394794 53.0678449,11.394794 Z" id="Shape"></path>
                    <path d="M24.3676939,11.394794 L20.6371431,11.394794 C20.0260969,11.394794 19.5307737,11.8901173 19.5307737,12.5011634 C19.5307737,13.1122096 20.0259495,13.6075328 20.6371431,13.6075328 L24.3676939,13.6075328 C24.97874,13.6075328 25.4740633,13.1122096 25.4740633,12.5011634 C25.4740633,11.8901173 24.97874,11.394794 24.3676939,11.394794 Z" id="Shape"></path>
                    <path d="M32.2092805,45.3074854 L20.6371431,45.3074854 C20.0260969,45.3074854 19.5307737,45.8028087 19.5307737,46.4138548 C19.5307737,47.0250483 20.0260969,47.5202242 20.6371431,47.5202242 L32.2092805,47.5202242 C32.8203266,47.5202242 33.3156499,47.0249009 33.3156499,46.4138548 C33.3156499,45.8026613 32.8203266,45.3074854 32.2092805,45.3074854 Z" id="Shape"></path>
                    <path d="M36.852494,34.0033532 L20.6371431,34.0033532 C20.0260969,34.0033532 19.5307737,34.4986765 19.5307737,35.1097226 C19.5307737,35.7209162 20.0260969,36.216092 20.6371431,36.216092 L36.852494,36.216092 C37.4633927,36.216092 37.9588634,35.7207687 37.9588634,35.1097226 C37.9588634,34.4985291 37.4635401,34.0033532 36.852494,34.0033532 Z" id="Shape"></path>
                    <path d="M44.7456768,22.6989262 L20.6371431,22.6989262 C20.0260969,22.6989262 19.5307737,23.1942495 19.5307737,23.8052956 C19.5307737,24.4163417 20.0260969,24.911665 20.6371431,24.911665 L44.7456768,24.911665 C45.3567229,24.9118124 45.8520462,24.4164891 45.8520462,23.8052956 C45.8520462,23.1941021 45.3567229,22.6989262 44.7456768,22.6989262 Z" id="Shape"></path>
                    <path d="M65.6839941,0.0751829972 L19.9594642,0.0751829972 C15.9093119,0.0751829972 12.6143802,3.37026212 12.6143802,7.42041441 L12.6143802,50.9534337 L1.10622198,50.9534337 C0.810944447,50.9534337 0.527755157,51.0715152 0.3200437,51.2812905 C0.112184825,51.4912132 -0.00309577047,51.7754344 -9.10092856e-15,52.070712 C0.0436356219,56.4637577 3.20058442,59.7763795 7.34331498,59.7763795 L53.0678449,59.7763795 L53.2071546,59.7763795 C57.2573068,59.7763795 60.5522386,56.4813004 60.5522386,52.4311481 L60.5522386,39.0245455 C60.5522386,38.4134994 60.0567679,37.9183235 59.4457217,37.9183235 C58.8346756,37.9183235 58.3393523,38.4136468 58.3393523,39.0246929 L58.3393523,52.4312955 C58.3393523,55.2614194 56.0369836,57.5636407 53.2071546,57.5636407 L53.0678449,57.5636407 C50.174184,57.5636407 47.9685212,55.1927228 47.9372687,52.0488941 C47.9312246,51.4421231 47.4376703,50.9534337 46.8308993,50.9534337 L14.8277086,50.9534337 L14.8277086,7.42026699 C14.8277086,4.59014311 17.1300774,2.2879218 19.9599064,2.2879218 L60.4345993,2.2879218 C60.4021674,2.32109077 60.3715045,2.35588133 60.3396623,2.38978739 C60.3010389,2.43091691 60.2619732,2.47160418 60.2242343,2.51347079 C60.1842841,2.5578435 60.1458081,2.60339555 60.1070373,2.64880018 C60.0697406,2.69228839 60.0321491,2.73533434 59.9958844,2.77970705 C59.9582929,2.82570135 59.922323,2.872875 59.8857634,2.91975381 C59.8503832,2.96515844 59.8147081,3.01012082 59.7803598,3.05640996 C59.7452744,3.10387844 59.7116632,3.15237885 59.6776097,3.20073183 C59.6441459,3.24820032 59.6102398,3.29537396 59.5778079,3.34357953 C59.5452286,3.39237477 59.5141235,3.44220193 59.4827236,3.49188168 C59.4513236,3.54126659 59.4194814,3.59020924 59.3892608,3.64033124 C59.3588927,3.69074808 59.3302937,3.74219683 59.3012524,3.79335075 C59.2722112,3.84420984 59.2424328,3.89477409 59.2145709,3.94651768 C59.1865615,3.99826128 59.160616,4.05118421 59.1339334,4.10381231 C59.1072508,4.15629299 59.0798311,4.20833142 59.0544753,4.26140177 C59.0289721,4.31476695 59.0055327,4.36916406 58.9812087,4.42311892 C58.9570323,4.47692636 58.9321187,4.53029154 58.9092689,4.58468865 C58.8861244,4.63967543 58.8651911,4.69569414 58.8433732,4.75127059 C58.8218503,4.80610995 58.7995902,4.86050706 58.779394,4.9159361 C58.7586081,4.9728393 58.7401809,5.03077444 58.7208692,5.08841474 C58.7022946,5.14384377 58.682688,5.19868313 58.6652927,5.25470184 C58.647013,5.31366889 58.6312393,5.37366787 58.6144337,5.43337202 C58.5988074,5.48909589 58.5820018,5.5443775 58.5675548,5.60069104 C58.5517812,5.66260645 58.5385136,5.72540637 58.5242141,5.78791145 C58.5116836,5.84289823 58.4978263,5.89759017 58.4866226,5.9530192 C58.473355,6.01803038 58.4628883,6.08377865 58.4513897,6.1493795 C58.441955,6.20362919 58.4310461,6.25728922 58.4227907,6.31183374 C58.4121766,6.38185712 58.4045109,6.45276501 58.3958133,6.52337806 C58.3896217,6.57438456 58.3818086,6.6248014 58.376649,6.67610274 C58.3686884,6.75511859 58.3638237,6.83501895 58.3583692,6.9147719 C58.3554209,6.95855494 58.3507035,7.00204314 58.3484922,7.0459736 C58.3423007,7.16995184 58.3390575,7.29481458 58.3390575,7.42041441 L58.3390575,7.79175945 L58.3390575,17.2401984 C58.3390575,17.8513919 58.8343808,18.3465678 59.4454269,18.3465678 C60.056473,18.3465678 60.5517963,17.8512445 60.5517963,17.2401984 L60.5517963,8.89812885 L71.9328805,8.89812885 C72.228158,8.89812885 72.5113473,8.78004732 72.7190588,8.57027201 C72.9269176,8.36034929 73.0421982,8.07612808 73.0391025,7.78085054 C72.9954668,3.38780482 69.838518,0.0751829972 65.6839941,0.0751829972 Z M45.8016293,53.1663199 C45.8168133,53.2808634 45.8345035,53.3942275 45.85411,53.5068546 C45.8605964,53.5445935 45.8685569,53.5815954 45.875633,53.6191869 C45.8896377,53.6936328 45.9036423,53.7680787 45.9195634,53.8414927 C45.9289982,53.8855705 45.9397597,53.9289113 45.9497841,53.972547 C45.9651155,54.0387375 45.9805943,54.104928 45.9975474,54.170234 C46.0093408,54.2160809 46.0221661,54.2614855 46.0346966,54.3068902 C46.0519445,54.3691004 46.0693398,54.4311632 46.0879144,54.4926364 C46.1017716,54.5387781 46.116366,54.584625 46.1311078,54.6303245 C46.1502721,54.690176 46.1701734,54.7497328 46.1906645,54.8088472 C46.2064382,54.8543993 46.2225067,54.8998039 46.2391649,54.9449137 C46.2606879,55.0035859 46.2829479,55.0616685 46.3057977,55.1194562 C46.3231929,55.1633867 46.3404408,55.2073171 46.3584258,55.2508053 C46.3827497,55.3093301 46.4081055,55.3671178 46.4336088,55.4249056 C46.4518885,55.4663299 46.4700209,55.5079017 46.4890378,55.5488838 C46.5170471,55.609325 46.5465307,55.6688818 46.5758668,55.7282911 C46.5941466,55.7651455 46.6116893,55.8022947 46.6305587,55.8388543 C46.6665286,55.9085828 46.7041201,55.977132 46.7420065,56.0455338 C46.7557163,56.0704474 46.7688365,56.0958032 46.7828412,56.120422 C46.8354693,56.2130003 46.8898664,56.3041044 46.9460325,56.3937343 C46.9591527,56.4146676 46.9731573,56.4347164 46.9864249,56.4555023 C47.030208,56.5240515 47.0745807,56.5921584 47.1204276,56.6589386 C47.1416557,56.6897489 47.1637683,56.7196747 47.1852913,56.7501902 C47.2247992,56.805914 47.2643072,56.8614905 47.3052893,56.9158876 C47.329908,56.9486143 47.3551164,56.9804565 47.3801774,57.012741 C47.4196854,57.0636001 47.4594881,57.1143117 47.5001754,57.1638441 C47.5270054,57.1964234 47.5542777,57.2285604 47.5815499,57.2606974 C47.6222372,57.3087556 47.6635141,57.3562241 47.7053808,57.4031029 C47.7335375,57.4346503 47.7621365,57.4657554 47.790883,57.4967131 C47.811374,57.5188257 47.831128,57.5418229 47.8519139,57.5636407 L7.34316756,57.5636407 L7.34316756,57.5636407 C4.80404611,57.5636407 2.79459623,55.7378732 2.31917434,53.1663199 L45.8016293,53.1663199 Z M60.6063408,6.68509521 C60.6067831,6.67757691 60.6075202,6.66976378 60.6085521,6.66209806 C60.6135643,6.62833942 60.6197558,6.59487562 60.6255051,6.56141181 C60.6334657,6.51423817 60.6415736,6.46706452 60.650861,6.42018571 C60.657937,6.38451064 60.6658976,6.34913041 60.6737107,6.31375017 C60.6834403,6.26981972 60.6933172,6.22603668 60.7040787,6.18254847 C60.7132186,6.1459889 60.7229482,6.10957674 60.7328252,6.073312 C60.7441763,6.03188764 60.7558223,5.99046329 60.768058,5.94948118 C60.7791143,5.91233194 60.7907603,5.87547752 60.8027011,5.83877053 C60.815379,5.79955744 60.8286466,5.76063918 60.8423565,5.72172092 C60.8556241,5.68412943 60.8690391,5.64653793 60.8831912,5.60938868 C60.8970484,5.57268169 60.9116428,5.53641695 60.9263845,5.50000479 C60.9418634,5.4616762 60.9573422,5.42349504 60.973853,5.3856087 C60.9884474,5.35185006 61.0039262,5.31853367 61.0192576,5.28521729 C61.03739,5.24585678 61.055375,5.20620143 61.0743918,5.16743059 C61.0885439,5.13853673 61.1037279,5.11023255 61.1184697,5.08163352 C61.1402875,5.03917724 61.1618105,4.99672096 61.1848077,4.95500177 C61.1936527,4.93878583 61.2033823,4.92315956 61.2123747,4.90709104 C61.3145352,4.72620959 61.42672,4.5516671 61.5493715,4.38523259 C61.5505508,4.38361099 61.5515827,4.38213681 61.5527621,4.38051522 C61.59227,4.32715003 61.6331047,4.27481677 61.6745291,4.22292576 C61.6811629,4.21467037 61.6875018,4.20626757 61.6941356,4.19801218 C61.7346755,4.14789018 61.7765421,4.09880011 61.8188509,4.0502997 C61.8266641,4.04130723 61.8344772,4.03216733 61.8424378,4.02317486 C61.8854837,3.97452704 61.9295616,3.92691114 61.974524,3.87988491 C61.9818948,3.87221919 61.9891183,3.86440606 61.9966366,3.85674034 C62.0432206,3.80868219 62.0906891,3.76136113 62.139042,3.71507199 C62.1444965,3.70991237 62.149951,3.70475275 62.1554054,3.69944572 C62.2064119,3.65109273 62.2583029,3.60362425 62.3113733,3.55733511 C62.3131423,3.55571352 62.3150587,3.55423934 62.3168277,3.55261775 C62.9943592,2.96250493 63.8281534,2.54634492 64.7483343,2.37504562 C64.7487766,2.37489821 64.7493662,2.37489821 64.7498085,2.37475079 C64.8251389,2.36074611 64.9012064,2.34836303 64.9777162,2.33774896 C64.9822861,2.33715929 64.986856,2.33656962 64.991426,2.33597995 C65.0643977,2.32595555 65.1378117,2.31740533 65.2116679,2.3104767 C65.2228717,2.30944477 65.2342228,2.3088551 65.245574,2.3079706 C65.3132387,2.30207389 65.3810508,2.29706169 65.4494526,2.2938185 C65.4889605,2.29204949 65.5287633,2.29175466 65.5685661,2.29072273 C65.6113172,2.28969081 65.6539209,2.28777438 65.6969668,2.28777438 C68.2360883,2.28777438 70.2455382,4.11354187 70.7209601,6.68509521 L60.6063408,6.68509521 L60.6063408,6.68509521 Z" id="Shape"></path>
                    <path d="M75.4766532,20.4661386 C75.4765058,20.4533133 75.4762109,20.4404879 75.4757687,20.4275152 C75.4713461,20.3234383 75.4526241,20.2231943 75.4212241,20.1282574 C75.41975,20.12354 75.4191603,20.1186752 75.4175387,20.1141053 C75.4162119,20.1102724 75.4140007,20.1067344 75.4126739,20.1029015 C75.3952786,20.0544011 75.3752298,20.0072275 75.351643,19.9621177 C75.3486947,19.9565158 75.3453041,19.9513562 75.3423557,19.9457543 C75.3205379,19.9059516 75.2963614,19.8677704 75.2699736,19.8310634 C75.2643718,19.8232503 75.2590647,19.8151423 75.2533154,19.8074766 C75.2242742,19.769148 75.1927268,19.7328833 75.1589682,19.6986824 C75.1515973,19.6911641 75.1437841,19.6842354 75.1362658,19.677012 C75.1044236,19.6463491 75.0708124,19.6176027 75.0354322,19.5909201 C75.0307148,19.587382 75.0262923,19.5834018 75.0214275,19.5798637 C74.9816247,19.5509699 74.9394633,19.5251718 74.8959751,19.501585 C74.8875723,19.497015 74.8791695,19.4928873 74.8706192,19.4886122 C74.8262465,19.4662047 74.7808419,19.4457137 74.733226,19.4293503 C74.7329312,19.4292029 74.7326363,19.4290555 74.7323415,19.4290555 C74.6850204,19.4128396 74.6359304,19.4006039 74.5859558,19.3907269 C74.5748995,19.3885156 74.5638431,19.3865992 74.5526394,19.3848302 C74.5026648,19.3765748 74.4519531,19.3703833 74.3999147,19.3690565 C65.1423817,19.1295028 53.0709407,21.3580153 46.9679977,28.3249731 C44.2970849,31.3740122 43.0646734,35.2422511 41.8729492,38.9829737 C41.7753587,39.2891602 41.6779156,39.5951992 41.5795881,39.900796 C41.5754604,39.9136213 41.5714801,39.9265941 41.5677947,39.9397142 L39.6979493,46.5807316 C39.5323993,47.1687805 39.8749979,47.7799741 40.4630469,47.9456715 C40.5632909,47.9739757 40.6642719,47.9872433 40.763484,47.9872433 C41.2465716,47.9872433 41.6905936,47.6682315 41.8279868,47.1802791 L43.5622079,41.0208752 C45.682221,40.0272803 47.3893173,39.5626199 49.6952241,38.9356527 C50.8913708,38.6101545 52.2471709,38.2416104 53.8877818,37.7369998 C57.4346503,36.6461093 64.2388589,32.0820591 67.3703045,28.6933698 C70.1090294,25.7293907 72.4136094,23.5266763 75.075972,21.328237 C75.0790678,21.3257309 75.0814265,21.3226351 75.0845222,21.3199816 C75.1232931,21.2871075 75.1601475,21.2521695 75.1940536,21.2142831 C75.1961174,21.2119245 75.1983287,21.2098606 75.2003925,21.2076493 C75.2338563,21.169763 75.2642243,21.1290757 75.2923811,21.0866195 C75.2975407,21.0788063 75.3025529,21.0709932 75.3075651,21.0630326 C75.3606355,20.9785623 75.4025021,20.8867211 75.431396,20.7888358 C75.4341969,20.7795485 75.4368504,20.7704086 75.4393565,20.7609739 C75.4521818,20.7129157 75.4627959,20.6639731 75.4691349,20.6135562 C75.4694297,20.6114924 75.4694297,20.609576 75.4695771,20.6075121 C75.4737048,20.5733112 75.4766532,20.5386681 75.4775377,20.5035827 C75.4779799,20.4909048 75.4768006,20.4785217 75.4766532,20.4661386 Z M48.6326377,29.7829336 C51.2078765,26.8429835 55.1549839,24.6268541 60.3644285,23.1963133 C61.7644538,22.8118481 63.2439373,22.4928363 64.7686779,22.241047 C60.8943949,24.1198849 57.189937,26.4731127 55.119751,27.8560376 C51.778825,30.0879407 48.1723998,32.7952656 45.5091527,35.2031854 C46.2972474,33.2068557 47.2500077,31.3613342 48.6326377,29.7829336 Z M65.7451724,27.1914788 C62.6974601,30.4896537 56.115115,34.736756 53.2373752,35.6217041 C51.6314074,36.1155532 50.2943294,36.4793799 49.114546,36.8001607 C48.0470948,37.0904261 47.0760548,37.3548933 46.1157763,37.659753 C46.5453513,37.2483103 47.04893,36.7870405 47.6425808,36.2691624 C50.0316311,34.1852666 53.1235688,31.8509082 56.3489193,29.696252 C61.9333944,25.9655537 66.987166,23.3468267 70.6948671,22.2115635 C69.0846242,23.694585 67.5007691,25.2914129 65.7451724,27.1914788 Z" id="Shape"></path>
                </g>
            </g>
        </g>
    </g>
</svg>