<?xml version="1.0" encoding="UTF-8"?>
<svg width="100px" height="100px" viewBox="0 0 100 100" version="1.1" xmlns="http://www.w3.org/2000/svg" xmlns:xlink="http://www.w3.org/1999/xlink">
    <!-- Generator: Sketch 43.1 (39012) - http://www.bohemiancoding.com/sketch -->
    <title>work</title>
    <desc>Created with Sketch.</desc>
    <defs></defs>
    <g id="Page-1" stroke="none" stroke-width="1" fill="none" fill-rule="evenodd">
        <g id="work">
            <circle id="Oval-2" fill="#D7263D" cx="50" cy="50" r="50"></circle>
            <g transform="translate(11.000000, 11.000000)" id="Shape" fill-rule="nonzero" fill="#FCFCFC">
                <path d="M78,32.7096774 L75.1730407,32.7096774 L70.9596302,34.9266475 C70.4853989,34.6649603 69.9921245,34.4432019 69.4601499,34.309901 L64.1600618,32.9836505 L64.1600618,32.3810326 C66.5048041,30.7445659 67.9354839,28.0410786 67.9354839,25.1612903 L67.9354839,22.9621346 C67.9354839,18.0748488 64.1060044,13.9849106 59.3993196,13.8423955 C59.1603611,13.8362525 58.9250882,13.8448525 58.6885869,13.856524 L60.062752,10.6394909 L53.4007844,3.97936626 L49.4736327,6.53542406 C47.981524,5.69507627 46.4034148,5.04085819 44.7644909,4.58198404 L43.7945281,0 L34.2067004,0 L33.2367376,4.58321254 C31.5978138,5.04208669 30.018476,5.69630477 28.5275958,6.53665256 L24.6004442,3.98059476 L17.9440052,10.6370338 L19.2948273,13.856524 C19.2432271,13.8540669 19.194084,13.8448525 19.1424835,13.843624 C16.7332409,13.7735951 14.4640561,14.652643 12.7403604,16.3259671 C11.0142073,17.9980627 10.0645161,20.2420615 10.0645161,22.6451613 L10.0645161,25.1612903 C10.0645161,28.0410786 11.4939674,30.7433374 13.8387097,32.3798041 L13.8387097,32.9836505 L10.3814894,33.8479555 L4.11512416,30.1935484 L0,30.1935484 L0,56.262144 L12.3767011,60.3870968 L14.7871724,60.3870968 L15.0881741,59.3329763 L18.8820249,61.6101468 C18.9440682,63.6729303 20.5983493,65.3327401 22.65929,65.4052261 C22.731776,67.4575669 24.3811428,69.1069336 26.4334835,69.1794197 C26.5059696,71.2317604 28.1553364,72.8811272 30.2076771,72.9536132 C30.2826203,75.0538684 32.0026304,76.7419355 34.1200857,76.7419355 C34.906376,76.7419355 35.6773091,76.496834 36.3253844,76.0600743 L37.4397051,77.0441658 C38.1381521,77.6590694 39.0374716,78 39.9711914,78 L40.2040071,78 C42.297505,78 44.0009293,76.3076329 44.0273438,74.2208921 C46.0981131,74.1944777 47.7751228,72.5174679 47.8015373,70.4466986 C49.8735351,70.4202841 51.5517735,68.7408172 51.5757308,66.6688192 C53.6667717,66.6196761 55.3548387,64.9113375 55.3548387,62.8086253 C55.3548387,62.6820817 55.3486959,62.5573809 55.3357957,62.4314516 L78,51.1002708 L78,32.7096774 Z M65.4193548,22.9621346 L65.4193548,25.1612903 C65.4193548,27.394232 64.2128906,29.4803585 62.2705077,30.6051223 L61.6414755,30.9687816 L61.6463898,34.9499906 L67.9317981,36.5201141 L54.0967742,43.8018995 L54.0967742,40.4128654 C54.0967742,38.721727 53.4136845,37.1731035 52.2950637,36.0286826 L56.6129032,34.9499906 L56.6129032,30.96571 L55.9850995,30.602665 C54.0439452,29.4803585 52.8387097,27.394232 52.8387097,25.1612903 L52.8387097,22.6451613 C52.8387097,20.9294513 53.5168851,19.3249276 54.7497638,18.1301347 C55.9814138,16.9359563 57.6154234,16.2921811 59.3237619,16.3585245 C62.6845388,16.4592678 65.4193548,19.4219852 65.4193548,22.9621346 Z M40.8969254,42.8128938 L35.2018491,40.9927545 C32.6064768,40.1610067 29.7973318,40.0369204 27.1405306,40.6254096 L26.4193548,40.7851247 L26.4193548,40.4128654 C26.4193548,38.6781124 27.5957189,37.171875 29.277643,36.7504725 L36.483871,34.9499906 L36.483871,30.96571 L35.8560672,30.602665 C33.914913,29.4803585 32.7096774,27.394232 32.7096774,25.1612903 L32.7096774,22.6451613 C32.7096774,20.9294513 33.3878528,19.3249276 34.6207315,18.1301348 C35.8523816,16.9359563 37.496834,16.2921811 39.1947297,16.3585245 C42.5555066,16.4592678 45.2903226,19.4219852 45.2903226,22.9621346 L45.2903226,25.1612903 C45.2903226,27.394232 44.0838584,29.4803585 42.1414755,30.6051223 L41.5124432,30.9687816 L41.5173575,34.9499906 L48.722357,36.7504725 C50.4042811,37.171875 51.5806452,38.6781124 51.5806452,40.4128654 L51.5806452,45.1269217 L51.2698148,45.2903226 L50.4988817,45.2903226 L42.7643649,43.0801095 C42.1549899,42.9074943 41.5271862,42.8368511 40.8969254,42.8128938 L40.8969254,42.8128938 Z M26.7013137,18.8291961 C29.0638703,14.2515121 33.819084,11.3225806 39,11.3225806 C44.1317729,11.3225806 48.866715,14.2121976 51.247086,18.7278384 C50.6481539,19.9287739 50.3225806,21.2587103 50.3225806,22.6451613 L50.3225806,25.1612903 C50.3225806,28.0410786 51.7520319,30.7433374 54.0967742,32.3798041 L54.0967742,32.9836505 L49.0645161,34.2435578 L44.0310296,32.9836505 L44.0310296,32.3810326 C46.3757718,30.7445659 47.8064516,28.0410786 47.8064516,25.1612903 L47.8064516,22.9621346 C47.8064516,18.0748488 43.9769721,13.9849106 39.2702873,13.8423955 C36.8622732,13.7717522 34.5918599,14.6514145 32.868164,16.3247386 C31.1432396,17.9980627 30.1935484,20.2420615 30.1935484,22.6451613 L30.1935484,25.1612903 C30.1935484,28.0410786 31.6229997,30.7433374 33.9677419,32.3798041 L33.9677419,32.9836505 L28.9354839,34.2435578 L23.9019973,32.9836505 L23.9019973,32.3810326 C26.2467396,30.7445659 27.6774194,28.0410786 27.6774194,25.1612903 L27.6774194,22.9621346 C27.6774194,21.4816972 27.3211316,20.0762033 26.7013137,18.8291961 L26.7013137,18.8291961 Z M20.9153226,11.2206085 L24.9346176,7.20131367 L28.4723098,9.50367002 L29.1492566,9.08841045 C30.8453093,8.04903293 32.6783486,7.28792843 34.5967742,6.82905427 L35.3707787,6.64353898 L36.246141,2.51612903 L41.7550875,2.51612903 L42.6279926,6.64231032 L43.4019973,6.82721136 C45.3204227,7.28669993 47.153462,8.04780427 48.8495148,9.08718179 L49.5264617,9.50244137 L53.0641539,7.20008502 L57.0785346,11.2156942 L55.6515405,14.5568138 C54.6803491,14.9745306 53.7798009,15.5624056 52.9959677,16.3222814 C52.9443674,16.3726531 52.9001386,16.4267105 52.8497668,16.4783108 C49.8858209,11.7667119 44.6459331,8.80645161 39,8.80645161 C33.3135239,8.80645161 28.058893,11.7943548 25.1023185,16.5538684 C24.3111139,15.7258065 23.3700227,15.0550025 22.3269593,14.5862997 L20.9153226,11.2206085 Z M16.3548387,34.9499906 L16.3548387,30.96571 L15.727035,30.602665 C13.7858807,29.4803585 12.5806452,27.394232 12.5806452,25.1612903 L12.5806452,22.6451613 C12.5806452,20.9294513 13.2588206,19.3249276 14.4916993,18.1301348 C15.7233493,16.9359563 17.3610447,16.2921811 19.0656974,16.3585245 C22.4264743,16.4592678 25.1612903,19.4219852 25.1612903,22.9621346 L25.1612903,25.1612903 C25.1612903,27.394232 23.9548261,29.4803585 22.0124432,30.6051223 L21.383411,30.9687816 L21.3883253,34.9499906 L25.7049363,36.0286826 C24.5863155,37.1731035 23.9032258,38.721727 23.9032258,40.4128654 L23.9032258,41.3447423 L19.9791457,42.2170331 L20.0811176,41.8607453 L20.1290323,39.5356603 L13.4940934,35.6650234 L16.3548387,34.9499906 Z M2.51612903,32.7096774 L3.43326294,32.7096774 L12.4811304,37.987037 L7.91573219,56.2480155 L2.51612903,54.4475334 L2.51612903,32.7096774 Z M12.7845892,57.8709677 L10.3083889,57.0459772 L14.7435578,39.3071447 L17.6129032,40.9804687 L17.6129032,41.339828 L12.890247,57.8709677 L12.7845892,57.8709677 Z M21.3870968,61.4928175 C21.3870968,61.1217868 21.5369834,60.7581275 21.7998992,60.4952117 L24.0113407,58.2837702 C24.2742566,58.0208543 24.6379158,57.8709677 25.0089466,57.8709677 C25.7866368,57.8709677 26.4193548,58.5036858 26.4193548,59.281376 C26.4193548,59.6524068 26.2694682,60.016066 26.0065524,60.2789819 L23.7951109,62.4904234 C23.5321951,62.7533392 23.1685358,62.9032258 22.797505,62.9032258 C22.0198148,62.9032258 21.3870968,62.2705077 21.3870968,61.4928175 Z M25.1612903,65.2670111 C25.1612903,64.8959803 25.3111769,64.5323211 25.5740927,64.2694052 L27.7855343,62.0579637 C28.0484501,61.7950479 28.4121094,61.6451613 28.7831401,61.6451613 C29.5608303,61.6451613 30.1935484,62.2778794 30.1935484,63.0555696 C30.1935484,63.4266003 30.0436618,63.7902596 29.780746,64.0531754 L27.5693044,66.2646169 C27.3063886,66.5275328 26.9427293,66.6774194 26.5716986,66.6774194 C25.7940084,66.6774194 25.1612903,66.0447013 25.1612903,65.2670111 Z M28.9354839,69.0412046 C28.9354839,68.6701739 29.0853705,68.3065146 29.3482863,68.0435988 L31.5597278,65.8321573 C31.8226436,65.5692414 32.1863029,65.4193548 32.5573337,65.4193548 C33.3350239,65.4193548 33.9677419,66.0520729 33.9677419,66.8297631 C33.9677419,67.2007939 33.8178553,67.5644531 33.5549395,67.827369 L31.343498,70.0388105 C31.0805822,70.3017263 30.7169229,70.4516129 30.3458921,70.4516129 C29.5682019,70.4516129 28.9354839,69.8188948 28.9354839,69.0412046 Z M34.1200857,74.2258065 C33.3423955,74.2258065 32.7096774,73.5930884 32.7096774,72.8153982 C32.7096774,72.4443674 32.859564,72.0807082 33.1224798,71.8177923 L35.3339214,69.6063508 C35.5968372,69.343435 35.9604965,69.1935484 36.3315272,69.1935484 C37.1092174,69.1935484 37.7419355,69.8262665 37.7419355,70.6039567 C37.7419355,70.9749874 37.5920489,71.3386467 37.3291331,71.6015625 L35.1176915,73.813004 C34.8547757,74.0759199 34.4911164,74.2258065 34.1200857,74.2258065 Z M40.2040071,75.483871 L39.9711914,75.483871 C39.6505324,75.483871 39.3433878,75.3671559 39.1044291,75.1552261 L38.163338,74.3253212 L39.1081149,73.3805444 C39.4453597,73.0432996 39.707047,72.6421687 39.9005481,72.2115517 L41.0443548,73.1637003 C41.3435138,73.4131016 41.516129,73.7804467 41.516129,74.171749 C41.516129,74.8953817 40.9276398,75.483871 40.2040071,75.483871 L40.2040071,75.483871 Z M51.4860447,64.1612903 L51.2685862,64.1612903 C50.9528414,64.1612903 50.6444682,64.0494896 50.4030526,63.8467742 L43.5807554,58.1615265 L41.9688602,60.0953093 L48.5939704,65.6153132 C48.8919009,65.8647146 49.0645161,66.2320596 49.0645161,66.6233619 C49.0645161,67.3469946 48.4760269,67.9354839 47.7523942,67.9354839 L47.4778068,67.9354839 C47.172505,67.9354839 46.8739604,67.827369 46.6386877,67.6307964 L39.8053333,61.9369488 L38.1934382,63.8707315 L44.8185484,69.3913495 C45.1177073,69.6389081 45.2903226,70.0062532 45.2903226,70.3975554 C45.2903226,71.1211882 44.7018333,71.7096774 43.9782006,71.7096774 C43.4953693,71.7096774 43.0248236,71.5382907 42.6544071,71.2305318 L39.8464906,68.8900894 C39.2279014,67.6258821 37.9569368,66.7443769 36.4685138,66.691548 C36.3960276,64.6392073 34.7466608,62.9898406 32.6943202,62.9173545 C32.621834,60.8650138 30.9724672,59.215647 28.9201267,59.143161 C28.846412,57.0429057 27.1264019,55.3548387 25.0089466,55.3548387 C23.9750976,55.3548387 22.9633632,55.7737839 22.2323589,56.5047883 L20.0209173,58.7162298 C19.8888451,58.8483021 19.7795017,58.9981887 19.6683152,59.1468466 L15.8038212,56.8279046 L19.1916267,44.9708921 L27.6847908,43.0825669 C29.9128182,42.5843782 32.2618605,42.6924931 34.4346018,43.3878686 L36.2879126,43.9806578 L30.0049615,47.1221334 C28.5693674,47.8414661 27.6774194,49.2856603 27.6774194,50.8914126 L27.6774194,51.1401998 C27.6774194,53.4640561 29.5682019,55.3548387 31.8920583,55.3548387 C32.65562,55.3548387 33.4068958,55.147209 34.0598854,54.7534494 L38.7444556,51.9443044 C39.6855469,51.3803868 40.9485257,51.503859 41.7612305,52.2348632 L52.3908928,61.8011909 C52.6753088,62.0591922 52.8387097,62.4253088 52.8387097,62.8086253 C52.8387097,63.5549867 52.2324061,64.1612903 51.4860447,64.1612903 L51.4860447,64.1612903 Z M75.483871,49.5448905 L54.2890467,60.143224 C54.2202463,60.0701235 54.1483745,60.0007088 54.0728169,59.9331369 L43.4449975,50.3668095 C42.5137349,49.5264617 41.3097278,49.0645161 40.0553491,49.0645161 C39.1382151,49.0645161 38.237667,49.3139177 37.4489195,49.7869204 L32.7625064,52.597294 C32.4995904,52.7557806 32.199203,52.8387097 31.8920583,52.8387097 C30.9546529,52.8387097 30.1935484,52.0776052 30.1935484,51.1401998 L30.1935484,50.8914126 C30.1935484,50.2433374 30.5535218,49.6622196 31.1321825,49.3728894 L38.1498236,45.8640689 C39.3507592,45.2626796 40.7765247,45.1281502 42.0708323,45.5004096 L49.9767357,47.758537 L51.8914755,47.8064516 L75.483871,35.3892073 L75.483871,49.5448905 Z"></path>
            </g>
        </g>
    </g>
</svg>