<?xml version="1.0" encoding="UTF-8"?>
<svg width="100px" height="100px" viewBox="0 0 100 100" version="1.1" xmlns="http://www.w3.org/2000/svg" xmlns:xlink="http://www.w3.org/1999/xlink">
    <!-- Generator: Sketch 43.1 (39012) - http://www.bohemiancoding.com/sketch -->
    <title>Group 2</title>
    <desc>Created with Sketch.</desc>
    <defs></defs>
    <g id="Page-1" stroke="none" stroke-width="1" fill="none" fill-rule="evenodd">
        <g id="Desktop-HD-Copy" transform="translate(-142.000000, -242.000000)">
            <g id="Group-2" transform="translate(142.000000, 242.000000)">
                <circle id="Oval-2" fill="#FFFFFF" cx="50" cy="50" r="50"></circle>
                <path d="M73.6926174,31.9615772 C73.4357383,30.9988255 72.914094,29.9729866 72.5281879,29.0748322 C67.9104027,17.9771812 57.8206376,14 49.6736577,14 C38.7674497,14 26.7555369,21.3130872 25.1518456,36.3870805 L25.1518456,39.4667785 C25.1518456,39.595302 25.1961409,40.7498322 25.2590604,41.327349 C26.1580537,48.5112416 31.8266779,56.1461409 36.0602349,63.3300336 C40.6149329,71.0268456 45.3411074,78.5983221 50.0234899,86.1666107 C52.9107383,81.2276846 55.7875839,76.2238255 58.6090604,71.4127517 C59.3780201,70.0008389 60.2706376,68.5897651 61.0404362,67.2421141 C61.5535235,66.3447987 62.5337248,65.4474832 62.9815436,64.6125839 C67.5360738,56.2738255 74.8671141,47.8706376 74.8671141,39.5951342 L74.8671141,36.1954698 C74.8672819,35.2983221 73.7552013,32.1550336 73.6926174,31.9615772 Z M49.8733221,47.4216443 C46.6674497,47.4216443 43.1583893,45.8186242 41.4263423,41.3916107 C41.1682886,40.6869128 41.189094,39.2746644 41.189094,39.145302 L41.189094,37.1567114 C41.189094,31.5130872 45.9810403,28.9466443 50.1498322,28.9466443 C55.282047,28.9466443 59.2513423,33.0526846 59.2513423,38.1848993 C59.2513423,43.3169463 55.0055369,47.4216443 49.8733221,47.4216443 Z" id="Facebook_Places" fill="#D7263D" fill-rule="nonzero"></path>
            </g>
        </g>
    </g>
</svg>