<?xml version="1.0" encoding="UTF-8"?>
<svg width="512px" height="406px" viewBox="0 0 512 406" version="1.1" xmlns="http://www.w3.org/2000/svg" xmlns:xlink="http://www.w3.org/1999/xlink">
    <!-- Generator: Sketch 43.1 (39012) - http://www.bohemiancoding.com/sketch -->
    <title>story</title>
    <desc>Created with Sketch.</desc>
    <defs></defs>
    <g id="Page-1" stroke="none" stroke-width="1" fill="none" fill-rule="evenodd">
        <g id="story" fill-rule="nonzero" fill="#083D77">
            <path d="M359.983,77.296 L200.219,77.296 C196.074,77.296 192.714,80.656 192.714,84.801 C192.714,88.946 196.074,92.306 200.219,92.306 L359.982,92.306 C364.127,92.306 367.488,88.946 367.488,84.801 C367.488,80.655 364.128,77.296 359.983,77.296 Z" id="Shape"></path>
            <path d="M165.297,77.296 L139.991,77.296 C135.846,77.296 132.486,80.656 132.486,84.801 C132.486,88.946 135.845,92.306 139.991,92.306 L165.297,92.306 C169.442,92.306 172.802,88.946 172.802,84.801 C172.802,80.656 169.442,77.296 165.297,77.296 Z" id="Shape"></path>
            <path d="M218.49,307.341 L139.991,307.341 C135.846,307.341 132.486,310.701 132.486,314.846 C132.486,318.992 135.846,322.351 139.991,322.351 L218.49,322.351 C222.635,322.351 225.995,318.991 225.995,314.846 C225.995,310.7 222.635,307.341 218.49,307.341 Z" id="Shape"></path>
            <path d="M249.987,230.66 L139.991,230.66 C135.846,230.66 132.486,234.02 132.486,238.165 C132.486,242.311 135.846,245.67 139.991,245.67 L249.987,245.67 C254.131,245.67 257.492,242.31 257.492,238.165 C257.492,234.019 254.132,230.66 249.987,230.66 Z" id="Shape"></path>
            <path d="M303.53,153.977 L139.991,153.977 C135.846,153.977 132.486,157.337 132.486,161.482 C132.486,165.627 135.846,168.987 139.991,168.987 L303.53,168.987 C307.675,168.988 311.035,165.628 311.035,161.482 C311.035,157.336 307.675,153.977 303.53,153.977 Z" id="Shape"></path>
            <path d="M445.564,0.51 L135.394,0.51 C107.92,0.51 85.569,22.862 85.569,50.336 L85.569,345.64 L7.504,345.64 C5.501,345.64 3.58,346.441 2.171,347.864 C0.761,349.288 -0.021,351.216 -4.4408921e-15,353.219 C0.296,383.019 21.711,405.49 49.813,405.49 L359.983,405.49 L360.928,405.49 C388.402,405.49 410.753,383.138 410.753,355.664 L410.753,264.721 C410.753,260.576 407.392,257.217 403.247,257.217 C399.102,257.217 395.742,260.577 395.742,264.722 L395.742,355.665 C395.742,374.863 380.124,390.48 360.928,390.48 L359.983,390.48 C340.354,390.48 325.392,374.397 325.18,353.071 C325.139,348.955 321.791,345.64 317.675,345.64 L100.583,345.64 L100.583,50.335 C100.583,31.137 116.201,15.52 135.397,15.52 L409.955,15.52 C409.735,15.745 409.527,15.981 409.311,16.211 C409.049,16.49 408.784,16.766 408.528,17.05 C408.257,17.351 407.996,17.66 407.733,17.968 C407.48,18.263 407.225,18.555 406.979,18.856 C406.724,19.168 406.48,19.488 406.232,19.806 C405.992,20.114 405.75,20.419 405.517,20.733 C405.279,21.055 405.051,21.384 404.82,21.712 C404.593,22.034 404.363,22.354 404.143,22.681 C403.922,23.012 403.711,23.35 403.498,23.687 C403.285,24.022 403.069,24.354 402.864,24.694 C402.658,25.036 402.464,25.385 402.267,25.732 C402.07,26.077 401.868,26.42 401.679,26.771 C401.489,27.122 401.313,27.481 401.132,27.838 C400.951,28.194 400.765,28.547 400.593,28.907 C400.42,29.269 400.261,29.638 400.096,30.004 C399.932,30.369 399.763,30.731 399.608,31.1 C399.451,31.473 399.309,31.853 399.161,32.23 C399.015,32.602 398.864,32.971 398.727,33.347 C398.586,33.733 398.461,34.126 398.33,34.517 C398.204,34.893 398.071,35.265 397.953,35.645 C397.829,36.045 397.722,36.452 397.608,36.857 C397.502,37.235 397.388,37.61 397.29,37.992 C397.183,38.412 397.093,38.838 396.996,39.262 C396.911,39.635 396.817,40.006 396.741,40.382 C396.651,40.823 396.58,41.269 396.502,41.714 C396.438,42.082 396.364,42.446 396.308,42.816 C396.236,43.291 396.184,43.772 396.125,44.251 C396.083,44.597 396.03,44.939 395.995,45.287 C395.941,45.823 395.908,46.365 395.871,46.906 C395.851,47.203 395.819,47.498 395.804,47.796 C395.762,48.637 395.74,49.484 395.74,50.336 L395.74,52.855 L395.74,116.948 C395.74,121.094 399.1,124.453 403.245,124.453 C407.39,124.453 410.75,121.093 410.75,116.948 L410.75,60.36 L487.953,60.36 C489.956,60.36 491.877,59.559 493.286,58.136 C494.696,56.712 495.478,54.784 495.457,52.781 C495.161,22.981 473.746,0.51 445.564,0.51 Z M310.693,360.651 C310.796,361.428 310.916,362.197 311.049,362.961 C311.093,363.217 311.147,363.468 311.195,363.723 C311.29,364.228 311.385,364.733 311.493,365.231 C311.557,365.53 311.63,365.824 311.698,366.12 C311.802,366.569 311.907,367.018 312.022,367.461 C312.102,367.772 312.189,368.08 312.274,368.388 C312.391,368.81 312.509,369.231 312.635,369.648 C312.729,369.961 312.828,370.272 312.928,370.582 C313.058,370.988 313.193,371.392 313.332,371.793 C313.439,372.102 313.548,372.41 313.661,372.716 C313.807,373.114 313.958,373.508 314.113,373.9 C314.231,374.198 314.348,374.496 314.47,374.791 C314.635,375.188 314.807,375.58 314.98,375.972 C315.104,376.253 315.227,376.535 315.356,376.813 C315.546,377.223 315.746,377.627 315.945,378.03 C316.069,378.28 316.188,378.532 316.316,378.78 C316.56,379.253 316.815,379.718 317.072,380.182 C317.165,380.351 317.254,380.523 317.349,380.69 C317.706,381.318 318.075,381.936 318.456,382.544 C318.545,382.686 318.64,382.822 318.73,382.963 C319.027,383.428 319.328,383.89 319.639,384.343 C319.783,384.552 319.933,384.755 320.079,384.962 C320.347,385.34 320.615,385.717 320.893,386.086 C321.06,386.308 321.231,386.524 321.401,386.743 C321.669,387.088 321.939,387.432 322.215,387.768 C322.397,387.989 322.582,388.207 322.767,388.425 C323.043,388.751 323.323,389.073 323.607,389.391 C323.798,389.605 323.992,389.816 324.187,390.026 C324.326,390.176 324.46,390.332 324.601,390.48 L49.812,390.48 L49.812,390.48 C32.588,390.48 18.957,378.095 15.732,360.651 L310.693,360.651 Z M411.12,45.348 C411.123,45.297 411.128,45.244 411.135,45.192 C411.169,44.963 411.211,44.736 411.25,44.509 C411.304,44.189 411.359,43.869 411.422,43.551 C411.47,43.309 411.524,43.069 411.577,42.829 C411.643,42.531 411.71,42.234 411.783,41.939 C411.845,41.691 411.911,41.444 411.978,41.198 C412.055,40.917 412.134,40.636 412.217,40.358 C412.292,40.106 412.371,39.856 412.452,39.607 C412.538,39.341 412.628,39.077 412.721,38.813 C412.811,38.558 412.902,38.303 412.998,38.051 C413.092,37.802 413.191,37.556 413.291,37.309 C413.396,37.049 413.501,36.79 413.613,36.533 C413.712,36.304 413.817,36.078 413.921,35.852 C414.044,35.585 414.166,35.316 414.295,35.053 C414.391,34.857 414.494,34.665 414.594,34.471 C414.742,34.183 414.888,33.895 415.044,33.612 C415.104,33.502 415.17,33.396 415.231,33.287 C415.924,32.06 416.685,30.876 417.517,29.747 C417.525,29.736 417.532,29.726 417.54,29.715 C417.808,29.353 418.085,28.998 418.366,28.646 C418.411,28.59 418.454,28.533 418.499,28.477 C418.774,28.137 419.058,27.804 419.345,27.475 C419.398,27.414 419.451,27.352 419.505,27.291 C419.797,26.961 420.096,26.638 420.401,26.319 C420.451,26.267 420.5,26.214 420.551,26.162 C420.867,25.836 421.189,25.515 421.517,25.201 C421.554,25.166 421.591,25.131 421.628,25.095 C421.974,24.767 422.326,24.445 422.686,24.131 C422.698,24.12 422.711,24.11 422.723,24.099 C427.319,20.096 432.975,17.273 439.217,16.111 C439.22,16.11 439.224,16.11 439.227,16.109 C439.738,16.014 440.254,15.93 440.773,15.858 C440.804,15.854 440.835,15.85 440.866,15.846 C441.361,15.778 441.859,15.72 442.36,15.673 C442.436,15.666 442.513,15.662 442.59,15.656 C443.049,15.616 443.509,15.582 443.973,15.56 C444.241,15.548 444.511,15.546 444.781,15.539 C445.071,15.532 445.36,15.519 445.652,15.519 C462.876,15.519 476.507,27.904 479.732,45.348 L411.12,45.348 L411.12,45.348 Z" id="Shape"></path>
            <path d="M511.992,138.831 C511.991,138.744 511.989,138.657 511.986,138.569 C511.956,137.863 511.829,137.183 511.616,136.539 C511.606,136.507 511.602,136.474 511.591,136.443 C511.582,136.417 511.567,136.393 511.558,136.367 C511.44,136.038 511.304,135.718 511.144,135.412 C511.124,135.374 511.101,135.339 511.081,135.301 C510.933,135.031 510.769,134.772 510.59,134.523 C510.552,134.47 510.516,134.415 510.477,134.363 C510.28,134.103 510.066,133.857 509.837,133.625 C509.787,133.574 509.734,133.527 509.683,133.478 C509.467,133.27 509.239,133.075 508.999,132.894 C508.967,132.87 508.937,132.843 508.904,132.819 C508.634,132.623 508.348,132.448 508.053,132.288 C507.996,132.257 507.939,132.229 507.881,132.2 C507.58,132.048 507.272,131.909 506.949,131.798 C506.947,131.797 506.945,131.796 506.943,131.796 C506.622,131.686 506.289,131.603 505.95,131.536 C505.875,131.521 505.8,131.508 505.724,131.496 C505.385,131.44 505.041,131.398 504.688,131.389 C441.89,129.764 360.004,144.881 318.605,192.141 C300.487,212.824 292.127,239.064 284.043,264.439 C283.381,266.516 282.72,268.592 282.053,270.665 C282.025,270.752 281.998,270.84 281.973,270.929 L269.289,315.978 C268.166,319.967 270.49,324.113 274.479,325.237 C275.159,325.429 275.844,325.519 276.517,325.519 C279.794,325.519 282.806,323.355 283.738,320.045 L295.502,278.263 C309.883,271.523 321.463,268.371 337.105,264.118 C345.219,261.91 354.416,259.41 365.545,255.987 C389.605,248.587 435.761,217.627 457.003,194.64 C475.581,174.534 491.214,159.592 509.274,144.679 C509.295,144.662 509.311,144.641 509.332,144.623 C509.595,144.4 509.845,144.163 510.075,143.906 C510.089,143.89 510.104,143.876 510.118,143.861 C510.345,143.604 510.551,143.328 510.742,143.04 C510.777,142.987 510.811,142.934 510.845,142.88 C511.205,142.307 511.489,141.684 511.685,141.02 C511.704,140.957 511.722,140.895 511.739,140.831 C511.826,140.505 511.898,140.173 511.941,139.831 C511.943,139.817 511.943,139.804 511.944,139.79 C511.972,139.558 511.992,139.323 511.998,139.085 C512.001,138.999 511.993,138.915 511.992,138.831 Z M329.897,202.031 C347.366,182.088 374.141,167.055 409.479,157.351 C418.976,154.743 429.012,152.579 439.355,150.871 C413.074,163.616 387.945,179.579 373.902,188.96 C351.239,204.1 326.775,222.465 308.709,238.799 C314.055,225.257 320.518,212.738 329.897,202.031 Z M445.979,184.452 C425.305,206.825 380.654,235.635 361.133,241.638 C350.239,244.988 341.169,247.456 333.166,249.632 C325.925,251.601 319.338,253.395 312.824,255.463 C315.738,252.672 319.154,249.543 323.181,246.03 C339.387,231.894 360.361,216.059 382.24,201.443 C420.122,176.136 454.404,158.372 479.555,150.671 C468.632,160.731 457.888,171.563 445.979,184.452 Z" id="Shape"></path>
        </g>
    </g>
</svg>