<?xml version="1.0" encoding="UTF-8"?>
<svg width="496px" height="496px" viewBox="0 0 496 496" version="1.1" xmlns="http://www.w3.org/2000/svg" xmlns:xlink="http://www.w3.org/1999/xlink">
    <!-- Generator: Sketch 43.1 (39012) - http://www.bohemiancoding.com/sketch -->
    <title>Shape</title>
    <desc>Created with Sketch.</desc>
    <defs></defs>
    <g id="Page-1" stroke="none" stroke-width="1" fill="none" fill-rule="evenodd">
        <g id="work" fill-rule="nonzero" fill="#083D77">
            <path d="M496,208 L478.023438,208 L451.230469,222.097656 C448.214844,220.433594 445.078125,219.023438 441.695312,218.175781 L407.992188,209.742188 L407.992188,205.910156 C422.902344,195.503906 432,178.3125 432,160 L432,146.015625 C432,114.9375 407.648438,88.929688 377.71875,88.023438 C376.199219,87.984375 374.703125,88.039062 373.199219,88.113281 L381.9375,67.65625 L339.574219,25.304688 L314.601562,41.558594 C305.113281,36.214844 295.078125,32.054688 284.65625,29.136719 L278.488281,0 L217.519531,0 L211.351562,29.144531 C200.929688,32.0625 190.886719,36.222656 181.40625,41.566406 L156.433594,25.3125 L114.105469,67.640625 L122.695312,88.113281 C122.367188,88.097656 122.054688,88.039062 121.726562,88.03125 C106.40625,87.585938 91.976562,93.175781 81.015625,103.816406 C70.039062,114.449219 64,128.71875 64,144 L64,160 C64,178.3125 73.089844,195.496094 88,205.902344 L88,209.742188 L66.015625,215.238281 L26.167969,192 L-8.52651283e-14,192 L-8.52651283e-14,357.769531 L78.703125,384 L94.03125,384 L95.945312,377.296875 L120.070312,391.777344 C120.464844,404.894531 130.984375,415.449219 144.089844,415.910156 C144.550781,428.960938 155.039062,439.449219 168.089844,439.910156 C168.550781,452.960938 179.039062,463.449219 192.089844,463.910156 C192.566406,477.265625 203.503906,488 216.96875,488 C221.96875,488 226.871094,486.441406 230.992188,483.664062 L238.078125,489.921875 C242.519531,493.832031 248.238281,496 254.175781,496 L255.65625,496 C268.96875,496 279.800781,485.238281 279.96875,471.96875 C293.136719,471.800781 303.800781,461.136719 303.96875,447.96875 C317.144531,447.800781 327.816406,437.121094 327.96875,423.945312 C341.265625,423.632812 352,412.769531 352,399.398438 C352,398.59375 351.960938,397.800781 351.878906,397 L496,324.945312 L496,208 Z M416,146.015625 L416,160 C416,174.199219 408.328125,187.464844 395.976562,194.617188 L391.976562,196.929688 L392.007812,222.246094 L431.976562,232.230469 L344,278.535156 L344,256.984375 C344,246.230469 339.65625,236.382812 332.542969,229.105469 L360,222.246094 L360,196.910156 L356.007812,194.601562 C343.664062,187.464844 336,174.199219 336,160 L336,144 C336,133.089844 340.3125,122.886719 348.152344,115.289062 C355.984375,107.695312 366.375,103.601562 377.238281,104.023438 C398.609375,104.664062 416,123.503906 416,146.015625 Z M260.0625,272.246094 L223.847656,260.671875 C207.34375,255.382812 189.480469,254.59375 172.585938,258.335938 L168,259.351562 L168,256.984375 C168,245.953125 175.480469,236.375 186.175781,233.695312 L232,222.246094 L232,196.910156 L228.007812,194.601562 C215.664062,187.464844 208,174.199219 208,160 L208,144 C208,133.089844 212.3125,122.886719 220.152344,115.289062 C227.984375,107.695312 238.441406,103.601562 249.238281,104.023438 C270.609375,104.664062 288,123.503906 288,146.015625 L288,160 C288,174.199219 280.328125,187.464844 267.976562,194.617188 L263.976562,196.929688 L264.007812,222.246094 L309.824219,233.695312 C320.519531,236.375 328,245.953125 328,256.984375 L328,286.960938 L326.023438,288 L321.121094,288 L271.9375,273.945312 C268.0625,272.847656 264.070312,272.398438 260.0625,272.246094 L260.0625,272.246094 Z M169.792969,119.734375 C184.816406,90.625 215.054688,72 248,72 C280.632812,72 310.742188,90.375 325.878906,119.089844 C322.070312,126.726562 320,135.183594 320,144 L320,160 C320,178.3125 329.089844,195.496094 344,205.902344 L344,209.742188 L312,217.753906 L279.992188,209.742188 L279.992188,205.910156 C294.902344,195.503906 304,178.3125 304,160 L304,146.015625 C304,114.9375 279.648438,88.929688 249.71875,88.023438 C234.40625,87.574219 219.96875,93.167969 209.007812,103.808594 C198.039062,114.449219 192,128.71875 192,144 L192,160 C192,178.3125 201.089844,195.496094 216,205.902344 L216,209.742188 L184,217.753906 L151.992188,209.742188 L151.992188,205.910156 C166.902344,195.503906 176,178.3125 176,160 L176,146.015625 C176,136.601562 173.734375,127.664062 169.792969,119.734375 L169.792969,119.734375 Z M133,71.351562 L158.558594,45.792969 L181.054688,60.433594 L185.359375,57.792969 C196.144531,51.183594 207.800781,46.34375 220,43.425781 L224.921875,42.246094 L230.488281,16 L265.519531,16 L271.070312,42.238281 L275.992188,43.414062 C288.191406,46.335938 299.847656,51.175781 310.632812,57.785156 L314.9375,60.425781 L337.433594,45.785156 L362.960938,71.320312 L353.886719,92.566406 C347.710938,95.222656 341.984375,98.960938 337,103.792969 C336.671875,104.113281 336.390625,104.457031 336.070312,104.785156 C317.222656,74.824219 283.902344,56 248,56 C211.839844,56 178.425781,75 159.625,105.265625 C154.59375,100 148.609375,95.734375 141.976562,92.753906 L133,71.351562 Z M104,222.246094 L104,196.910156 L100.007812,194.601562 C87.664062,187.464844 80,174.199219 80,160 L80,144 C80,133.089844 84.3125,122.886719 92.152344,115.289062 C99.984375,107.695312 110.398438,103.601562 121.238281,104.023438 C142.609375,104.664062 160,123.503906 160,146.015625 L160,160 C160,174.199219 152.328125,187.464844 139.976562,194.617188 L135.976562,196.929688 L136.007812,222.246094 L163.457031,229.105469 C156.34375,236.382812 152,246.230469 152,256.984375 L152,262.910156 L127.046875,268.457031 L127.695312,266.191406 L128,251.40625 L85.808594,226.792969 L104,222.246094 Z M16,208 L21.832031,208 L79.367188,241.558594 L50.335938,357.679688 L16,346.230469 L16,208 Z M81.296875,368 L65.550781,362.753906 L93.753906,249.953125 L112,260.59375 L112,262.878906 L81.96875,368 L81.296875,368 Z M136,391.03125 C136,388.671875 136.953125,386.359375 138.625,384.6875 L152.6875,370.625 C154.359375,368.953125 156.671875,368 159.03125,368 C163.976562,368 168,372.023438 168,376.96875 C168,379.328125 167.046875,381.640625 165.375,383.3125 L151.3125,397.375 C149.640625,399.046875 147.328125,400 144.96875,400 C140.023438,400 136,395.976562 136,391.03125 Z M160,415.03125 C160,412.671875 160.953125,410.359375 162.625,408.6875 L176.6875,394.625 C178.359375,392.953125 180.671875,392 183.03125,392 C187.976562,392 192,396.023438 192,400.96875 C192,403.328125 191.046875,405.640625 189.375,407.3125 L175.3125,421.375 C173.640625,423.046875 171.328125,424 168.96875,424 C164.023438,424 160,419.976562 160,415.03125 Z M184,439.03125 C184,436.671875 184.953125,434.359375 186.625,432.6875 L200.6875,418.625 C202.359375,416.953125 204.671875,416 207.03125,416 C211.976562,416 216,420.023438 216,424.96875 C216,427.328125 215.046875,429.640625 213.375,431.3125 L199.3125,445.375 C197.640625,447.046875 195.328125,448 192.96875,448 C188.023438,448 184,443.976562 184,439.03125 Z M216.96875,472 C212.023438,472 208,467.976562 208,463.03125 C208,460.671875 208.953125,458.359375 210.625,456.6875 L224.6875,442.625 C226.359375,440.953125 228.671875,440 231.03125,440 C235.976562,440 240,444.023438 240,448.96875 C240,451.328125 239.046875,453.640625 237.375,455.3125 L223.3125,469.375 C221.640625,471.046875 219.328125,472 216.96875,472 Z M255.65625,480 L254.175781,480 C252.136719,480 250.183594,479.257812 248.664062,477.910156 L242.679688,472.632812 L248.6875,466.625 C250.832031,464.480469 252.496094,461.929688 253.726562,459.191406 L261,465.246094 C262.902344,466.832031 264,469.167969 264,471.65625 C264,476.257812 260.257812,480 255.65625,480 L255.65625,480 Z M327.398438,408 L326.015625,408 C324.007812,408 322.046875,407.289062 320.511719,406 L277.128906,369.847656 L266.878906,382.144531 L309.007812,417.246094 C310.902344,418.832031 312,421.167969 312,423.65625 C312,428.257812 308.257812,432 303.65625,432 L301.910156,432 C299.96875,432 298.070312,431.3125 296.574219,430.0625 L253.121094,393.855469 L242.871094,406.152344 L285,441.257812 C286.902344,442.832031 288,445.167969 288,447.65625 C288,452.257812 284.257812,456 279.65625,456 C276.585938,456 273.59375,454.910156 271.238281,452.953125 L253.382812,438.070312 C249.449219,430.03125 241.367188,424.425781 231.902344,424.089844 C231.441406,411.039062 220.953125,400.550781 207.902344,400.089844 C207.441406,387.039062 196.953125,376.550781 183.902344,376.089844 C183.433594,362.734375 172.496094,352 159.03125,352 C152.457031,352 146.023438,354.664062 141.375,359.3125 L127.3125,373.375 C126.472656,374.214844 125.777344,375.167969 125.070312,376.113281 L100.496094,361.367188 L122.039062,285.96875 L176.046875,273.960938 C190.214844,270.792969 205.152344,271.480469 218.96875,275.902344 L230.753906,279.671875 L190.800781,299.648438 C181.671875,304.222656 176,313.40625 176,323.617188 L176,325.199219 C176,339.976562 188.023438,352 202.800781,352 C207.65625,352 212.433594,350.679688 216.585938,348.175781 L246.375,330.3125 C252.359375,326.726562 260.390625,327.511719 265.558594,332.160156 L333.152344,392.992188 C334.960938,394.632812 336,396.960938 336,399.398438 C336,404.144531 332.144531,408 327.398438,408 L327.398438,408 Z M480,315.054688 L345.222656,382.449219 C344.785156,381.984375 344.328125,381.542969 343.847656,381.113281 L276.265625,320.28125 C270.34375,314.9375 262.6875,312 254.710938,312 C248.878906,312 243.152344,313.585938 238.136719,316.59375 L208.335938,334.464844 C206.664062,335.472656 204.753906,336 202.800781,336 C196.839844,336 192,331.160156 192,325.199219 L192,323.617188 C192,319.496094 194.289062,315.800781 197.96875,313.960938 L242.59375,291.648438 C250.230469,287.824219 259.296875,286.96875 267.527344,289.335938 L317.800781,303.695312 L329.976562,304 L480,225.039062 L480,315.054688 Z" id="Shape"></path>
        </g>
    </g>
</svg>